<svg width="346" height="338" viewBox="0 0 346 338" fill="none" xmlns="http://www.w3.org/2000/svg">
<path d="M99.1195 3.38257H5.00146V159.171H99.1195V3.38257Z" fill="#E0E0E0"/>
<path d="M95.9857 3.38257H1.86768V159.171H95.9857V3.38257Z" fill="#EBEBEB"/>
<path d="M91.98 6.53943H5.88135V156.006H91.98V6.53943Z" fill="#FAFAFA"/>
<path d="M75.208 25.959H22.2676V136.579H75.208V25.959Z" fill="#EBEBEB"/>
<path d="M22.2673 97.439C22.1438 87.1041 31.4368 77.0161 41.6714 75.5728C46.5494 74.8859 51.7053 75.8507 56.2977 73.9828C64.4329 70.6485 67.0263 59.835 75.2155 56.6241L75.586 136.587H22.2673V97.439Z" fill="#E0E0E0"/>
<path d="M305.88 46.7318L298.154 46.7736L298.362 85.2106L306.088 85.1688L305.88 46.7318Z" fill="#E0E0E0"/>
<path d="M251.244 46.8269L231.238 46.9352L231.353 68.1527L251.358 68.0445L251.244 46.8269Z" fill="#EBEBEB"/>
<path d="M271.156 46.727L251.15 46.8352L251.265 68.0528L271.271 67.9445L271.156 46.727Z" fill="#F5F5F5"/>
<path d="M231.266 52.819C244.557 52.9271 257.887 52.819 271.178 52.6338C271.227 52.6243 271.272 52.5979 271.304 52.5592C271.336 52.5205 271.354 52.4718 271.354 52.4215C271.354 52.3713 271.336 52.3226 271.304 52.2838C271.272 52.2451 271.227 52.2187 271.178 52.2093C257.882 52.1321 244.578 52.2118 231.266 52.4485C231.217 52.4485 231.17 52.468 231.135 52.5028C231.101 52.5375 231.081 52.5846 231.081 52.6338C231.081 52.6829 231.101 52.73 231.135 52.7648C231.17 52.7995 231.217 52.819 231.266 52.819Z" fill="#E0E0E0"/>
<path d="M255.115 67.6994L218.77 67.8961L218.864 85.185L255.209 84.9884L255.115 67.6994Z" fill="#EBEBEB"/>
<path d="M291.282 67.5037L254.937 67.7004L255.031 84.9893L291.376 84.7927L291.282 67.5037Z" fill="#F5F5F5"/>
<path d="M218.785 72.7169C242.928 72.9948 267.156 72.7169 291.3 72.3619C291.349 72.3524 291.394 72.3261 291.426 72.2873C291.458 72.2486 291.475 72.1999 291.475 72.1496C291.475 72.0994 291.458 72.0507 291.426 72.0119C291.394 71.9732 291.349 71.9468 291.3 71.9374C267.156 71.8062 242.928 71.8216 218.785 72.3542C218.744 72.3628 218.706 72.3856 218.679 72.4186C218.652 72.4516 218.638 72.4929 218.638 72.5355C218.638 72.5781 218.652 72.6194 218.679 72.6525C218.706 72.6855 218.744 72.7083 218.785 72.7169Z" fill="#E0E0E0"/>
<path d="M346 85.1975H205.193V91.3954H346V85.1975Z" fill="#E0E0E0"/>
<path d="M233.967 88.1768H228.248V109.317H233.967V88.1768Z" fill="#E0E0E0"/>
<path d="M319.295 88.1768H313.575V109.317H319.295V88.1768Z" fill="#E0E0E0"/>
<path d="M313.421 32.3964L305.695 32.4382L305.981 85.3007L313.707 85.2589L313.421 32.3964Z" fill="#EBEBEB"/>
<path d="M325.492 42.2416L313.49 42.3065L313.722 85.143L325.723 85.078L325.492 42.2416Z" fill="#F5F5F5"/>
<path d="M325.4 50.511C321.404 50.7889 317.393 50.7889 313.397 50.511C317.393 50.2331 321.404 50.2331 325.4 50.511Z" fill="#E0E0E0"/>
<path d="M325.4 48.7128C321.404 48.9907 317.393 48.9907 313.397 48.7128C317.393 48.4349 321.404 48.4349 325.4 48.7128Z" fill="#E0E0E0"/>
<path d="M325.4 78.6215C321.404 78.8994 317.393 78.8994 313.397 78.6215C317.393 78.3437 321.404 78.3437 325.4 78.6215Z" fill="#E0E0E0"/>
<path d="M325.4 76.854C321.403 77.1216 317.394 77.1216 313.397 76.854C317.393 76.5762 321.404 76.5762 325.4 76.854Z" fill="#E0E0E0"/>
<path d="M319.596 72.9253C319.48 72.9253 319.387 68.603 319.387 63.2696C319.387 57.9362 319.48 53.6216 319.596 53.6216C319.711 53.6216 319.804 57.9362 319.804 63.2696C319.804 68.603 319.696 72.9253 319.596 72.9253Z" fill="#E0E0E0"/>
<path d="M338.598 52.7726H325.531V85.1049H338.598V52.7726Z" fill="#EBEBEB"/>
<path d="M311.661 41.4419C311.668 41.8831 311.545 42.3166 311.305 42.6872C311.066 43.0578 310.721 43.3487 310.316 43.5229C309.91 43.6971 309.462 43.7466 309.028 43.6653C308.595 43.5839 308.195 43.3753 307.88 43.066C307.565 42.7567 307.35 42.3608 307.261 41.9285C307.172 41.4963 307.214 41.0474 307.381 40.639C307.548 40.2305 307.833 39.8811 308.199 39.6351C308.565 39.3891 308.997 39.2576 309.438 39.2576C310.021 39.2555 310.582 39.4837 310.998 39.8927C311.415 40.3017 311.653 40.8584 311.661 41.4419Z" fill="#E0E0E0"/>
<path d="M310.125 47.5471H308.751V78.9918H310.125V47.5471Z" fill="#E0E0E0"/>
<path d="M112.681 292.884C112.681 292.884 105.603 298.287 112.38 305.395C112.438 305.456 112.507 305.504 112.584 305.537C112.661 305.57 112.744 305.588 112.827 305.588L174.659 305.225C174.659 305.225 179.939 299.305 175.555 292.482L112.681 292.884Z" fill="#EBEBEB"/>
<path d="M160.99 298.511C160.99 298.58 153.272 298.634 143.801 298.634C134.331 298.634 126.604 298.58 126.604 298.511C126.604 298.441 134.323 298.387 143.801 298.387C153.279 298.387 160.99 298.441 160.99 298.511Z" fill="#E0E0E0"/>
<path d="M151.373 300.749C151.373 300.819 147.761 300.873 143.292 300.873C138.823 300.873 135.211 300.819 135.211 300.749C135.211 300.68 138.831 300.618 143.292 300.618C147.753 300.618 151.373 300.68 151.373 300.749Z" fill="#E0E0E0"/>
<path d="M167.311 305.025C167.311 305.025 167.45 304.315 167.643 303.173C167.891 301.683 168.009 300.175 167.998 298.665C167.983 297.153 167.836 295.644 167.558 294.157C167.342 293.015 167.157 292.32 167.196 292.305C167.271 292.458 167.331 292.618 167.373 292.784C167.517 293.221 167.636 293.667 167.728 294.119C168.059 295.61 168.235 297.13 168.253 298.657C168.262 300.184 168.114 301.707 167.813 303.203C167.697 303.775 167.581 304.238 167.489 304.546C167.396 304.855 167.334 305.033 167.311 305.025Z" fill="#E0E0E0"/>
<path d="M171.927 292.421C172.041 292.556 172.134 292.707 172.205 292.868C172.307 293.049 172.4 293.234 172.483 293.424C172.6 293.676 172.703 293.933 172.792 294.196C173.045 294.861 173.244 295.545 173.386 296.241C173.548 297.099 173.638 297.969 173.656 298.842C173.655 299.717 173.577 300.59 173.425 301.451C173.296 302.152 173.11 302.841 172.869 303.512C172.777 303.805 172.661 304.052 172.568 304.284C172.49 304.475 172.4 304.661 172.298 304.84C172.23 305.002 172.142 305.155 172.036 305.295C171.989 305.295 172.337 304.608 172.707 303.466C173.184 301.969 173.418 300.406 173.402 298.835C173.391 297.975 173.309 297.118 173.155 296.272C173.027 295.582 172.852 294.901 172.63 294.235C172.275 293.085 171.889 292.421 171.927 292.421Z" fill="#E0E0E0"/>
<path d="M122.437 305.11C122.322 304.984 122.224 304.844 122.143 304.693C122.038 304.53 121.942 304.359 121.858 304.184C121.735 303.953 121.625 303.716 121.526 303.474C121.264 302.843 121.063 302.189 120.924 301.521C120.762 300.7 120.681 299.865 120.685 299.028C120.703 298.191 120.807 297.358 120.993 296.543C121.149 295.88 121.369 295.234 121.649 294.613C121.751 294.372 121.867 294.138 121.997 293.911C122.083 293.733 122.183 293.562 122.298 293.401C122.475 293.131 122.583 292.984 122.599 293C122.614 293.015 122.244 293.617 121.827 294.682C121.575 295.302 121.376 295.943 121.233 296.597C121.065 297.4 120.97 298.216 120.947 299.036C120.948 299.853 121.021 300.669 121.163 301.475C121.294 302.131 121.475 302.776 121.703 303.404C122.105 304.477 122.475 305.087 122.437 305.11Z" fill="#E0E0E0"/>
<path d="M115.76 306.615C115.632 306.477 115.526 306.321 115.444 306.152C115.333 305.956 115.237 305.752 115.158 305.542C115.018 305.292 114.892 305.034 114.78 304.77C114.482 304.064 114.247 303.333 114.078 302.586C113.646 300.752 113.604 298.849 113.954 296.998C114.09 296.243 114.294 295.501 114.564 294.783C114.664 294.474 114.795 294.211 114.896 293.972C114.985 293.769 115.085 293.57 115.197 293.378C115.278 293.207 115.377 293.044 115.49 292.892C115.536 292.892 115.143 293.625 114.718 294.844C114.479 295.56 114.296 296.293 114.17 297.036C114.025 297.948 113.958 298.869 113.969 299.792C114.01 301.474 114.336 303.136 114.934 304.708C115.374 305.905 115.799 306.592 115.76 306.615Z" fill="#E0E0E0"/>
<path d="M172.39 324.066V335.891H149.498V324.066H172.39Z" fill="#EBEBEB"/>
<path d="M98.4483 330.079C98.4483 330.187 98.4483 330.287 98.4483 330.395C98.5586 332.122 99.3252 333.741 100.591 334.921C101.857 336.101 103.526 336.751 105.256 336.74H173.44V335.883H157.232C155.663 335.883 154.16 335.26 153.051 334.152C151.942 333.043 151.319 331.539 151.319 329.971C151.319 328.403 151.942 326.899 153.051 325.79C154.16 324.682 155.663 324.059 157.232 324.059H173.44V322.801L105.24 323.032C104.328 323.035 103.425 323.221 102.585 323.579C101.745 323.937 100.986 324.46 100.353 325.118C99.7191 325.775 99.2241 326.553 98.897 327.405C98.5698 328.257 98.4173 329.167 98.4483 330.079Z" fill="#E0E0E0"/>
<path d="M172.39 330.125C172.39 330.195 167.682 330.256 161.878 330.256C156.073 330.256 151.365 330.195 151.365 330.125C151.365 330.056 156.073 330.002 161.878 330.002C167.682 330.002 172.39 330.063 172.39 330.125Z" fill="#E0E0E0"/>
<path d="M172.058 332.796C172.058 332.865 167.605 332.919 162.109 332.919C156.614 332.919 152.16 332.865 152.16 332.796C152.16 332.726 156.614 332.672 162.109 332.672C167.605 332.672 172.058 332.726 172.058 332.796Z" fill="#E0E0E0"/>
<path d="M172.39 335.235C172.39 335.304 168.384 335.358 163.445 335.358C158.505 335.358 154.499 335.304 154.499 335.235C154.499 335.165 158.505 335.111 163.445 335.111C168.384 335.111 172.39 335.165 172.39 335.235Z" fill="#E0E0E0"/>
<path d="M172.39 327.732C172.39 327.802 167.759 327.856 162.094 327.856C156.428 327.856 151.797 327.802 151.797 327.732C151.797 327.663 156.428 327.609 162.094 327.609C167.759 327.609 172.39 327.663 172.39 327.732Z" fill="#E0E0E0"/>
<path d="M172.058 325.34C172.058 325.409 167.952 325.463 162.897 325.463C157.841 325.463 153.727 325.409 153.727 325.34C153.727 325.27 157.833 325.216 162.897 325.216C167.96 325.216 172.058 325.27 172.058 325.34Z" fill="#E0E0E0"/>
<path d="M106.714 323.225C106.185 323.758 105.699 324.334 105.263 324.946C104.228 326.44 103.683 328.219 103.704 330.036C103.725 331.853 104.31 333.619 105.379 335.088C105.833 335.688 106.331 336.253 106.869 336.779C106.694 336.676 106.53 336.555 106.383 336.416C105.96 336.051 105.577 335.642 105.24 335.196C104.105 333.714 103.48 331.904 103.459 330.037C103.438 328.169 104.022 326.346 105.124 324.838C105.449 324.385 105.821 323.968 106.236 323.596C106.378 323.452 106.539 323.327 106.714 323.225Z" fill="#F5F5F5"/>
<path d="M104.407 322.97C103.884 323.513 103.399 324.09 102.956 324.699C101.925 326.193 101.383 327.971 101.405 329.786C101.427 331.601 102.012 333.365 103.079 334.834C103.531 335.435 104.029 336 104.569 336.524C104.389 336.425 104.223 336.303 104.075 336.161C103.652 335.796 103.269 335.387 102.933 334.942C101.797 333.462 101.172 331.655 101.15 329.791C101.127 327.926 101.71 326.105 102.809 324.599C103.134 324.143 103.506 323.724 103.921 323.349C104.067 323.204 104.23 323.077 104.407 322.97Z" fill="#F5F5F5"/>
<path d="M150.732 323.225C150.209 323.763 149.727 324.338 149.289 324.946C148.254 326.44 147.709 328.219 147.73 330.036C147.751 331.853 148.336 333.619 149.405 335.088C149.859 335.688 150.357 336.253 150.894 336.779C150.716 336.678 150.55 336.556 150.4 336.416C149.981 336.05 149.6 335.641 149.266 335.196C148.126 333.717 147.496 331.909 147.469 330.042C147.443 328.175 148.022 326.349 149.119 324.838C149.441 324.383 149.814 323.966 150.231 323.596C150.383 323.453 150.552 323.329 150.732 323.225Z" fill="#F5F5F5"/>
<path d="M148.432 322.97C147.904 323.508 147.419 324.086 146.981 324.699C145.946 326.191 145.401 327.969 145.421 329.785C145.442 331.601 146.028 333.366 147.097 334.834C147.551 335.433 148.049 335.998 148.587 336.524C148.411 336.422 148.248 336.3 148.1 336.161C147.676 335.798 147.293 335.389 146.958 334.942C145.823 333.462 145.197 331.655 145.175 329.791C145.153 327.926 145.735 326.105 146.835 324.599C147.159 324.143 147.532 323.724 147.946 323.349C148.091 323.201 148.254 323.074 148.432 322.97Z" fill="#F5F5F5"/>
<path d="M114.471 331.785L114.402 326.968C114.426 326.55 114.371 326.131 114.24 325.733C114.17 325.534 114.047 325.358 113.886 325.222C113.724 325.086 113.529 324.996 113.321 324.962C112.719 324.691 111.778 325.193 111.361 325.888C110.992 326.617 110.829 327.434 110.89 328.25C110.875 329.518 110.936 330.786 111.075 332.047C111.101 332.653 111.254 333.248 111.523 333.791C111.643 334.073 111.849 334.309 112.111 334.466C112.374 334.624 112.679 334.694 112.984 334.668C113.288 334.641 113.577 334.519 113.808 334.319C114.039 334.118 114.201 333.85 114.271 333.552C114.45 332.981 114.518 332.381 114.471 331.785Z" fill="#F5F5F5"/>
<path d="M140.953 330.357C140.953 330.426 136.021 330.488 129.947 330.488C123.872 330.488 118.933 330.426 118.933 330.357C118.933 330.287 123.865 330.233 129.947 330.233C136.029 330.233 140.953 330.287 140.953 330.357Z" fill="#F5F5F5"/>
<path d="M109.902 322.754L109.779 311.539H115.884L116.092 322.754H109.902Z" fill="#F5F5F5"/>
<path d="M115.521 313.531C114.58 313.66 113.63 313.704 112.681 313.662C111.735 313.704 110.786 313.66 109.848 313.531C110.787 313.407 111.735 313.366 112.681 313.407C113.629 313.366 114.58 313.407 115.521 313.531Z" fill="#E0E0E0"/>
<path d="M115.521 315.267C114.58 315.391 113.629 315.432 112.681 315.391C111.735 315.432 110.787 315.391 109.848 315.267C110.787 315.143 111.735 315.102 112.681 315.144C113.629 315.102 114.58 315.143 115.521 315.267Z" fill="#E0E0E0"/>
<path d="M115.521 316.996C114.58 317.12 113.629 317.161 112.681 317.12C111.735 317.161 110.787 317.12 109.848 316.996C110.787 316.872 111.735 316.831 112.681 316.873C113.629 316.831 114.58 316.873 115.521 316.996Z" fill="#E0E0E0"/>
<path d="M115.521 318.725C114.58 318.849 113.629 318.89 112.681 318.849C111.735 318.89 110.787 318.849 109.848 318.725C110.787 318.601 111.735 318.56 112.681 318.602C113.629 318.56 114.58 318.601 115.521 318.725Z" fill="#E0E0E0"/>
<path d="M115.521 320.454C114.58 320.583 113.63 320.627 112.681 320.585C111.735 320.627 110.786 320.583 109.848 320.454C110.787 320.335 111.735 320.293 112.681 320.331C113.629 320.294 114.579 320.335 115.521 320.454Z" fill="#E0E0E0"/>
<path d="M109.455 311.238H177.114C177.891 315.243 177.891 319.359 177.114 323.364H109.756V322.523H113.877C114.132 322.523 114.385 322.472 114.62 322.374C114.856 322.277 115.07 322.133 115.25 321.952C115.43 321.772 115.572 321.557 115.669 321.321C115.766 321.085 115.816 320.833 115.815 320.578V313.87C115.816 313.615 115.766 313.362 115.669 313.126C115.572 312.891 115.43 312.676 115.25 312.495C115.07 312.315 114.856 312.171 114.62 312.073C114.385 311.976 114.132 311.925 113.877 311.925H109.47L109.455 311.238Z" fill="#EBEBEB"/>
<path d="M125.447 317.313H126.574C126.614 317.301 126.657 317.301 126.697 317.313C126.736 317.332 126.768 317.362 126.79 317.399C126.812 317.436 126.823 317.478 126.821 317.521C126.825 317.547 126.825 317.573 126.821 317.598C126.821 317.691 126.775 317.783 126.744 317.884C126.609 318.357 126.366 318.793 126.034 319.157C125.918 319.303 125.773 319.423 125.608 319.509C125.443 319.596 125.262 319.647 125.077 319.659H124.938C124.776 319.629 124.623 319.564 124.489 319.468C124.356 319.372 124.245 319.247 124.166 319.103C123.931 318.69 123.816 318.22 123.834 317.745C123.836 317.416 123.88 317.09 123.965 316.772C124.089 316.293 124.318 315.847 124.637 315.468C124.756 315.308 124.909 315.177 125.085 315.084C125.262 314.99 125.456 314.937 125.655 314.928C125.802 314.927 125.947 314.959 126.08 315.02C126.4 315.199 126.638 315.495 126.744 315.846C126.751 315.884 126.751 315.924 126.744 315.962C126.754 316 126.754 316.04 126.744 316.078C126.723 316.115 126.693 316.146 126.656 316.168C126.62 316.189 126.578 316.201 126.535 316.201C126.51 316.209 126.483 316.209 126.458 316.201C126.422 316.192 126.389 316.173 126.362 316.147C126.335 316.122 126.315 316.09 126.304 316.055C126.27 315.959 126.223 315.868 126.165 315.784C126.109 315.69 126.03 315.612 125.935 315.557C125.841 315.501 125.734 315.471 125.625 315.468C125.49 315.469 125.359 315.515 125.254 315.599C124.971 315.833 124.757 316.14 124.637 316.487C124.466 316.89 124.377 317.323 124.374 317.76C124.363 318.105 124.429 318.448 124.567 318.764C124.609 318.888 124.688 318.996 124.792 319.075C124.897 319.153 125.023 319.198 125.154 319.204C125.264 319.191 125.369 319.155 125.464 319.097C125.558 319.04 125.64 318.963 125.702 318.872C125.961 318.565 126.157 318.211 126.281 317.83C125.764 317.83 125.509 317.83 125.47 317.83C125.399 317.83 125.33 317.801 125.279 317.751C125.229 317.7 125.2 317.631 125.2 317.56V317.475C125.221 317.427 125.256 317.386 125.299 317.357C125.343 317.328 125.395 317.313 125.447 317.313Z" fill="#FAFAFA"/>
<path d="M129.291 315.105C129.291 315.105 129.291 315.159 129.291 315.19C129.337 315.35 129.594 316.747 130.062 319.381C130.066 319.402 130.066 319.423 130.062 319.443C130.073 319.484 130.073 319.526 130.062 319.567C130.045 319.604 130.016 319.636 129.98 319.658C129.945 319.68 129.904 319.691 129.862 319.69H129.823C129.779 319.683 129.738 319.663 129.706 319.633C129.673 319.602 129.649 319.563 129.638 319.52L129.368 318.123H127.979L127.307 319.528C127.312 319.543 127.312 319.559 127.307 319.574C127.284 319.609 127.253 319.637 127.217 319.657C127.18 319.677 127.14 319.689 127.099 319.69C127.052 319.689 127.007 319.676 126.967 319.652C126.934 319.628 126.907 319.597 126.888 319.56C126.869 319.524 126.859 319.484 126.859 319.443C126.852 319.421 126.852 319.396 126.859 319.374C126.898 319.273 126.967 319.127 127.068 318.918C128.04 316.788 128.611 315.538 128.812 315.152C128.831 315.104 128.862 315.064 128.903 315.033C128.944 315.003 128.993 314.986 129.044 314.982C129.092 314.979 129.14 314.989 129.184 315.011C129.227 315.032 129.264 315.065 129.291 315.105ZM128.99 316.047L128.218 317.629H129.283L128.99 316.047Z" fill="#FAFAFA"/>
<path d="M133.065 319.69H131.027C130.981 319.689 130.936 319.676 130.896 319.651C130.861 319.619 130.832 319.579 130.813 319.536C130.793 319.492 130.782 319.445 130.78 319.397C130.78 319.32 130.966 317.922 131.344 315.229C131.34 315.198 131.34 315.167 131.344 315.136C131.36 315.091 131.391 315.052 131.431 315.026C131.472 314.999 131.519 314.987 131.568 314.99C131.603 314.982 131.64 314.982 131.676 314.99C131.716 315.009 131.75 315.04 131.773 315.078C131.797 315.116 131.808 315.161 131.807 315.206L131.676 316.348C131.444 318.133 131.321 319.075 131.305 319.173H133.042C133.085 319.165 133.13 319.165 133.173 319.173C133.22 319.191 133.26 319.222 133.287 319.264C133.315 319.305 133.329 319.355 133.327 319.404C133.331 319.43 133.331 319.456 133.327 319.482C133.312 319.54 133.278 319.592 133.231 319.63C133.184 319.667 133.125 319.689 133.065 319.69Z" fill="#FAFAFA"/>
<path d="M135.851 315.105C135.851 315.105 135.851 315.159 135.851 315.19C135.898 315.352 136.168 316.734 136.623 319.381C136.627 319.402 136.627 319.423 136.623 319.443C136.621 319.487 136.608 319.529 136.584 319.567C136.567 319.604 136.538 319.636 136.502 319.658C136.467 319.68 136.426 319.691 136.384 319.69H136.345C136.302 319.681 136.262 319.66 136.229 319.63C136.197 319.601 136.173 319.562 136.16 319.52L135.998 318.123H134.609L133.937 319.528C133.94 319.543 133.94 319.559 133.937 319.574C133.912 319.608 133.879 319.636 133.842 319.656C133.804 319.676 133.763 319.687 133.721 319.69C133.675 319.688 133.63 319.675 133.59 319.651C133.556 319.628 133.529 319.597 133.51 319.56C133.491 319.524 133.482 319.484 133.482 319.443C133.478 319.42 133.478 319.397 133.482 319.374C133.52 319.273 133.59 319.127 133.69 318.918C134.663 316.788 135.234 315.538 135.434 315.152C135.453 315.104 135.485 315.063 135.526 315.033C135.567 315.003 135.615 314.985 135.666 314.982C135.704 314.989 135.74 315.003 135.772 315.024C135.803 315.045 135.831 315.073 135.851 315.105ZM135.55 316.047L134.778 317.629H135.844L135.55 316.047Z" fill="#FAFAFA"/>
<path d="M139.085 317.513L139.456 318.532C139.664 319.119 139.772 319.42 139.772 319.451C139.784 319.491 139.784 319.534 139.772 319.574C139.75 319.609 139.719 319.639 139.683 319.659C139.647 319.679 139.606 319.69 139.564 319.69C139.471 319.69 139.41 319.636 139.363 319.528C139.317 319.42 139.363 319.451 139.325 319.42C139.217 319.165 139.031 318.648 138.777 317.984L137.627 319.528C137.604 319.565 137.572 319.597 137.534 319.619C137.497 319.642 137.454 319.656 137.41 319.659C137.37 319.667 137.328 319.667 137.287 319.659C137.25 319.639 137.22 319.608 137.199 319.572C137.179 319.535 137.169 319.493 137.171 319.451V319.435C137.198 319.36 137.24 319.292 137.295 319.235C137.681 318.733 138.067 318.139 138.576 317.452C138.53 317.313 138.483 317.189 138.437 317.066C138.005 315.9 137.781 315.298 137.781 315.26C137.774 315.219 137.774 315.177 137.781 315.136C137.8 315.099 137.829 315.069 137.864 315.047C137.9 315.025 137.94 315.013 137.982 315.013C138.028 315.013 138.073 315.026 138.113 315.051C138.152 315.075 138.184 315.11 138.205 315.152L138.892 316.988L140.251 315.136C140.274 315.1 140.306 315.071 140.344 315.05C140.382 315.03 140.424 315.02 140.467 315.02C140.503 315.012 140.539 315.012 140.575 315.02C140.615 315.04 140.648 315.071 140.67 315.11C140.692 315.148 140.702 315.192 140.699 315.236C140.709 315.274 140.709 315.314 140.699 315.352L139.085 317.513Z" fill="#FAFAFA"/>
<path d="M144.149 314.997C144.184 314.989 144.221 314.989 144.257 314.997C144.297 315.015 144.33 315.045 144.354 315.082C144.377 315.119 144.389 315.162 144.388 315.206C144.056 317.845 143.871 319.265 143.84 319.482C143.782 319.881 143.631 320.262 143.4 320.593C143.18 320.902 142.857 321.122 142.488 321.213C142.12 321.304 141.731 321.259 141.393 321.087C141.09 320.962 140.837 320.739 140.675 320.454C140.668 320.416 140.668 320.377 140.675 320.338C140.664 320.298 140.664 320.255 140.675 320.215C140.695 320.176 140.724 320.144 140.761 320.122C140.798 320.1 140.841 320.09 140.884 320.091C140.92 320.094 140.955 320.104 140.987 320.121C141.019 320.139 141.047 320.163 141.069 320.192C141.182 320.367 141.336 320.512 141.518 320.616C141.699 320.719 141.902 320.777 142.111 320.786C142.262 320.779 142.409 320.738 142.543 320.668C142.676 320.597 142.792 320.498 142.883 320.377C143.161 320.006 143.317 319.559 143.331 319.096C143.253 319.221 143.151 319.328 143.029 319.412C142.821 319.569 142.566 319.654 142.304 319.651H142.165C142.003 319.623 141.849 319.558 141.716 319.462C141.582 319.365 141.472 319.24 141.393 319.096C141.152 318.685 141.034 318.213 141.054 317.737C141.054 317.49 141.054 317.235 141.054 316.965C141.09 316.549 141.182 315.962 141.331 315.206C141.325 315.183 141.325 315.159 141.331 315.136C141.343 315.088 141.371 315.045 141.41 315.014C141.45 314.983 141.498 314.966 141.548 314.966C141.589 314.969 141.629 314.982 141.663 315.005C141.701 315.021 141.732 315.049 141.754 315.083C141.776 315.117 141.787 315.157 141.787 315.198C141.765 315.508 141.726 315.818 141.671 316.124C141.591 316.597 141.54 317.073 141.517 317.552C141.502 317.928 141.562 318.303 141.694 318.656C141.833 318.988 142.034 319.15 142.296 319.15H142.381C142.637 319.068 142.855 318.895 142.991 318.663C143.235 318.327 143.406 317.943 143.493 317.536L143.801 315.221C143.797 315.188 143.797 315.154 143.801 315.121C143.811 315.086 143.828 315.053 143.853 315.027C143.878 315 143.908 314.98 143.943 314.968C143.977 314.955 144.013 314.952 144.049 314.957C144.085 314.962 144.119 314.976 144.149 314.997Z" fill="#FAFAFA"/>
<path d="M174.59 323.518C174.52 323.518 174.458 320.74 174.458 317.305C174.458 313.87 174.52 311.084 174.59 311.084C174.659 311.084 174.713 313.87 174.713 317.305C174.713 320.74 174.644 323.518 174.59 323.518Z" fill="#F5F5F5"/>
<path d="M119.203 323.518C119.134 323.518 119.08 320.74 119.08 317.305C119.08 313.87 119.134 311.084 119.203 311.084C119.273 311.084 119.327 313.87 119.327 317.305C119.327 320.74 119.273 323.518 119.203 323.518Z" fill="#E0E0E0"/>
<path d="M175.755 323.518C175.694 323.518 175.632 320.74 175.632 317.305C175.632 313.87 175.694 311.084 175.755 311.084C175.817 311.084 175.887 313.87 175.887 317.305C175.887 320.74 175.825 323.518 175.755 323.518Z" fill="#F5F5F5"/>
<path d="M118.099 323.518C118.03 323.518 117.968 320.74 117.968 317.305C117.968 313.87 118.03 311.084 118.099 311.084C118.168 311.084 118.222 313.87 118.222 317.305C118.222 320.74 118.161 323.518 118.099 323.518Z" fill="#E0E0E0"/>
<path d="M158.165 313.129L165.313 318.895L165.374 318.949H165.297L164.348 319.204L158.312 320.786L152.84 318.471L151.296 317.807L150.887 317.629L150.787 317.583L150.895 317.629L151.304 317.791L152.847 318.44L158.327 320.755L164.363 319.165L165.32 318.91V318.98L158.181 313.199" fill="#E0E0E0"/>
<path d="M164.656 317.984L165.05 318.347L165.575 318.239L165.343 318.718L165.613 319.181L165.081 319.119L164.726 319.513L164.625 318.988L164.139 318.772L164.602 318.517L164.656 317.984Z" fill="#E0E0E0"/>
<path d="M157.802 320.253L158.065 320.477L158.404 320.385L158.273 320.709L158.466 320.994L158.119 320.971L157.903 321.241L157.818 320.909L157.494 320.786L157.787 320.601L157.802 320.253Z" fill="#E0E0E0"/>
<path d="M150.223 317.15L150.648 317.174L150.91 316.842L151.018 317.251L151.419 317.397L151.057 317.621L151.041 318.053L150.709 317.783L150.308 317.899L150.462 317.498L150.223 317.15Z" fill="#E0E0E0"/>
<path d="M167.867 313.222L168.292 313.253L168.554 312.913L168.662 313.33L169.056 313.477L168.701 313.701L168.685 314.125L168.353 313.855L167.944 313.971L168.106 313.577L167.867 313.222Z" fill="#E0E0E0"/>
<path d="M157.818 312.944L158.088 312.959L158.258 312.751L158.327 313.013L158.582 313.106L158.35 313.253L158.343 313.523L158.134 313.345L157.872 313.422L157.972 313.168L157.818 312.944Z" fill="#E0E0E0"/>
<path d="M168.461 313.523C168.461 313.523 166.146 313.469 163.298 313.353C160.45 313.237 158.134 313.106 158.134 313.075C158.134 313.044 160.45 313.129 163.298 313.253C166.146 313.376 168.461 313.492 168.461 313.523Z" fill="#E0E0E0"/>
<path d="M171.063 311.138H102.438C101.543 309.1 101.319 307.163 102.438 305.426H171.063C171.488 306.318 171.709 307.294 171.709 308.282C171.709 309.27 171.488 310.246 171.063 311.138Z" fill="#E0E0E0"/>
<path d="M153.827 307.055H116.648V309.131H153.827V307.055Z" fill="#EBEBEB"/>
<path d="M105.07 311.169C104.844 310.978 104.66 310.741 104.53 310.474C104.18 309.851 103.967 309.161 103.905 308.449C103.842 307.737 103.932 307.02 104.167 306.345C104.244 306.059 104.387 305.794 104.584 305.573C104.517 305.855 104.434 306.134 104.337 306.407C104.158 307.068 104.095 307.754 104.152 308.437C104.219 309.118 104.399 309.783 104.685 310.405C104.836 310.648 104.965 310.903 105.07 311.169Z" fill="#E0E0E0"/>
<path d="M106.56 311.169C106.329 310.983 106.144 310.745 106.02 310.474C105.666 309.854 105.45 309.164 105.387 308.452C105.326 307.739 105.416 307.021 105.65 306.345C105.733 306.062 105.875 305.799 106.066 305.573C106.003 305.856 105.921 306.135 105.819 306.407C105.643 307.068 105.583 307.755 105.642 308.437C105.702 309.119 105.882 309.786 106.174 310.405C106.318 310.652 106.447 310.907 106.56 311.169Z" fill="#E0E0E0"/>
<path d="M168.284 311.03C168.558 310.124 168.722 309.189 168.77 308.244C168.73 307.295 168.577 306.354 168.315 305.442C168.819 306.286 169.063 307.261 169.017 308.244C169.057 309.225 168.801 310.195 168.284 311.03Z" fill="#F5F5F5"/>
<path d="M167.011 311.022C166.933 311.022 167.219 309.795 167.211 308.282C167.203 306.769 166.926 305.565 167.003 305.55C167.615 307.323 167.615 309.25 167.003 311.022H167.011Z" fill="#F5F5F5"/>
<path d="M210.287 284.517L113.861 284.455C111.104 284.454 108.375 283.91 105.828 282.854C103.281 281.798 100.967 280.251 99.0186 278.301C97.0698 276.351 95.5242 274.036 94.4701 271.488C93.416 268.941 92.874 266.211 92.875 263.454L92.9213 21.7215C92.9223 18.9625 93.4667 16.2307 94.5235 13.6821C95.5803 11.1335 97.1287 8.81799 99.0803 6.8678C101.032 4.91761 103.349 3.37091 105.898 2.31602C108.447 1.26114 111.179 0.718714 113.938 0.719728L210.357 0.781477C215.925 0.785567 221.263 2.9998 225.2 6.93773C229.136 10.8757 231.349 16.2152 231.351 21.7832L231.297 263.515C231.297 266.274 230.753 269.006 229.697 271.554C228.641 274.103 227.094 276.418 225.143 278.369C223.192 280.319 220.875 281.866 218.327 282.921C215.778 283.976 213.046 284.518 210.287 284.517Z" fill="#263238"/>
<path d="M210.04 9.40291H191.346C190.736 9.41492 190.134 9.54743 189.576 9.7928C189.017 10.0382 188.512 10.3916 188.09 10.8327C187.668 11.2738 187.338 11.794 187.118 12.3632C186.898 12.9325 186.793 13.5396 186.808 14.1497V17.5381C186.822 18.1482 186.716 18.7551 186.495 19.324C186.274 19.8928 185.943 20.4124 185.52 20.8528C185.098 21.2932 184.592 21.6458 184.033 21.8902C183.474 22.1347 182.872 22.2662 182.262 22.2772H145.823C145.213 22.2652 144.611 22.1327 144.053 21.8873C143.494 21.6419 142.989 21.2885 142.567 20.8474C142.145 20.4063 141.815 19.8861 141.595 19.3169C141.375 18.7476 141.27 18.1405 141.285 17.5304V14.1343C141.304 13.5235 141.203 12.9149 140.986 12.3436C140.769 11.7723 140.442 11.2495 140.022 10.8054C139.602 10.3612 139.099 10.0046 138.541 9.75593C137.982 9.50728 137.381 9.37156 136.77 9.3566H130.194H113.838C111.905 9.35254 109.99 9.72956 108.203 10.4661C106.415 11.2026 104.791 12.2842 103.421 13.649C102.052 15.0139 100.966 16.6352 100.223 18.4203C99.4812 20.2054 99.0982 22.1192 99.0962 24.0524L99.0499 260.004C99.0438 261.933 99.4186 263.845 100.153 265.63C100.887 267.414 101.966 269.037 103.329 270.403C104.691 271.77 106.31 272.854 108.092 273.594C109.874 274.334 111.785 274.715 113.715 274.715L209.948 274.769C211.88 274.77 213.793 274.39 215.578 273.652C217.363 272.914 218.986 271.831 220.352 270.466C221.719 269.1 222.804 267.479 223.544 265.695C224.284 263.91 224.666 261.997 224.667 260.065L224.759 24.1142C224.759 22.1816 224.379 20.268 223.639 18.4826C222.899 16.6973 221.815 15.0752 220.448 13.709C219.081 12.3428 217.458 11.2594 215.672 10.5205C213.887 9.78167 211.973 9.4019 210.04 9.40291Z" fill="white"/>
<path d="M225.817 46.8911C225.817 46.9992 197.405 47.0918 162.372 47.0918C127.338 47.0918 98.9497 46.976 98.9497 46.8911C98.9497 46.8062 127.353 46.6904 162.41 46.6904C197.467 46.6904 225.817 46.7753 225.817 46.8911Z" fill="#263238"/>
<path d="M112.187 38.1461C112.094 38.147 112.003 38.1141 111.932 38.0535L108.266 34.8349C108.223 34.7998 108.188 34.7549 108.165 34.7039C108.142 34.653 108.132 34.5974 108.135 34.5416C108.134 34.4854 108.146 34.4297 108.17 34.3789C108.194 34.3281 108.23 34.2834 108.274 34.2483L111.94 31.1609C112.019 31.097 112.12 31.0668 112.221 31.0769C112.322 31.087 112.415 31.1366 112.48 31.215C112.513 31.2537 112.537 31.2985 112.552 31.3469C112.567 31.3953 112.573 31.4462 112.567 31.4965C112.562 31.5469 112.547 31.5958 112.523 31.6402C112.499 31.6847 112.466 31.7238 112.426 31.7553L109.115 34.5184L112.434 37.436C112.472 37.4686 112.504 37.5085 112.527 37.5535C112.55 37.5985 112.563 37.6476 112.567 37.698C112.571 37.7484 112.564 37.7989 112.548 37.8467C112.532 37.8945 112.506 37.9386 112.472 37.9763C112.441 38.0249 112.399 38.0655 112.35 38.095C112.3 38.1245 112.244 38.142 112.187 38.1461Z" fill="#263238"/>
<path d="M192.187 34.3334C192.187 34.4491 180.247 34.534 165.513 34.534C150.778 34.534 138.838 34.4491 138.838 34.3334C138.838 34.2176 150.778 34.1327 165.513 34.1327C180.247 34.1327 192.187 34.2253 192.187 34.3334Z" fill="#263238"/>
<path d="M207.64 34.3102C207.64 34.585 207.558 34.8536 207.406 35.0821C207.253 35.3105 207.036 35.4886 206.782 35.5938C206.528 35.6989 206.249 35.7264 205.98 35.6728C205.71 35.6192 205.463 35.4869 205.268 35.2926C205.074 35.0983 204.942 34.8507 204.888 34.5812C204.834 34.3117 204.862 34.0324 204.967 33.7785C205.072 33.5247 205.25 33.3077 205.479 33.155C205.707 33.0024 205.976 32.9209 206.251 32.9209C206.619 32.9209 206.972 33.0673 207.233 33.3278C207.494 33.5884 207.64 33.9417 207.64 34.3102Z" fill="#263238"/>
<path d="M211.638 34.3102C211.638 34.5853 211.557 34.8542 211.404 35.0829C211.251 35.3115 211.033 35.4896 210.779 35.5945C210.525 35.6994 210.245 35.7265 209.975 35.6723C209.706 35.618 209.458 35.4849 209.264 35.2899C209.07 35.0948 208.938 34.8465 208.886 34.5765C208.833 34.3065 208.862 34.0269 208.968 33.7732C209.074 33.5195 209.253 33.303 209.483 33.1513C209.712 32.9996 209.982 32.9194 210.257 32.9209C210.439 32.9209 210.619 32.9569 210.787 33.0268C210.956 33.0967 211.108 33.1992 211.237 33.3283C211.365 33.4574 211.467 33.6106 211.536 33.7791C211.605 33.9477 211.639 34.1281 211.638 34.3102Z" fill="#263238"/>
<path d="M215.644 34.3102C215.644 34.585 215.562 34.8536 215.41 35.0821C215.257 35.3105 215.04 35.4886 214.786 35.5938C214.532 35.6989 214.253 35.7264 213.984 35.6728C213.714 35.6192 213.466 35.4869 213.272 35.2926C213.078 35.0983 212.946 34.8507 212.892 34.5812C212.838 34.3117 212.866 34.0324 212.971 33.7785C213.076 33.5247 213.254 33.3077 213.483 33.155C213.711 33.0024 213.98 32.9209 214.255 32.9209C214.623 32.9209 214.976 33.0673 215.237 33.3278C215.497 33.5884 215.644 33.9417 215.644 34.3102Z" fill="#263238"/>
<path d="M150.331 98.7278C150.331 99.6231 149.961 100.163 149.343 100.163C149.197 100.177 149.052 100.139 148.931 100.056C148.811 99.9726 148.725 99.8493 148.687 99.708C148.584 99.8579 148.443 99.9785 148.28 100.058C148.116 100.138 147.935 100.174 147.753 100.163C147.421 100.138 147.112 99.9883 146.886 99.7443C146.66 99.5003 146.534 99.18 146.534 98.8474C146.534 98.5148 146.66 98.1945 146.886 97.9505C147.112 97.7065 147.421 97.5568 147.753 97.5314C147.916 97.5229 148.079 97.5518 148.228 97.6161C148.378 97.6803 148.511 97.7781 148.618 97.9019V97.5623H149.189V99.3221C149.189 99.5845 149.312 99.6771 149.459 99.6771C149.737 99.6771 149.891 99.3452 149.891 98.7355C149.895 98.4801 149.846 98.2266 149.746 97.9916C149.646 97.7565 149.497 97.5452 149.31 97.3712C149.123 97.1972 148.902 97.0646 148.66 96.9818C148.418 96.899 148.162 96.868 147.907 96.8908C147.64 96.8668 147.37 96.8989 147.115 96.9849C146.86 97.071 146.626 97.2092 146.427 97.3907C146.229 97.5722 146.07 97.7931 145.962 98.0392C145.853 98.2854 145.797 98.5514 145.797 98.8204C145.797 99.0894 145.853 99.3554 145.962 99.6015C146.07 99.8477 146.229 100.069 146.427 100.25C146.626 100.432 146.86 100.57 147.115 100.656C147.37 100.742 147.64 100.774 147.907 100.75C148.255 100.752 148.599 100.672 148.911 100.518L149.05 100.935C148.692 101.099 148.301 101.181 147.907 101.175C147.586 101.193 147.265 101.146 146.963 101.035C146.661 100.925 146.385 100.754 146.151 100.534C145.917 100.313 145.731 100.047 145.604 99.7515C145.476 99.4562 145.411 99.1381 145.411 98.8165C145.411 98.495 145.476 98.1769 145.604 97.8816C145.731 97.5863 145.917 97.3202 146.151 97.0994C146.385 96.8787 146.661 96.7079 146.963 96.5977C147.265 96.4876 147.586 96.4402 147.907 96.4586C148.219 96.435 148.531 96.4764 148.826 96.5801C149.12 96.6837 149.39 96.8474 149.618 97.0607C149.846 97.2741 150.027 97.5324 150.149 97.8194C150.272 98.1063 150.334 98.4157 150.331 98.7278ZM148.625 98.8435C148.616 98.6932 148.563 98.5488 148.473 98.4281C148.383 98.3074 148.26 98.2157 148.118 98.1643C147.976 98.1129 147.823 98.1041 147.676 98.1389C147.53 98.1737 147.397 98.2506 147.293 98.3602C147.19 98.4698 147.121 98.6072 147.095 98.7555C147.069 98.9038 147.086 99.0566 147.146 99.1949C147.205 99.3333 147.304 99.4512 147.43 99.5342C147.556 99.6171 147.703 99.6614 147.853 99.6617C147.959 99.6619 148.063 99.6405 148.16 99.5988C148.257 99.5572 148.344 99.4962 148.416 99.4195C148.489 99.3429 148.544 99.2522 148.58 99.1532C148.616 99.0541 148.632 98.9487 148.625 98.8435Z" fill="#263238"/>
<path d="M179.499 100.133C179.499 100.241 173.911 100.333 167.026 100.333C160.141 100.333 154.561 100.241 154.561 100.133C154.561 100.025 160.141 99.9243 167.026 99.9243C173.911 99.9243 179.499 100.017 179.499 100.133Z" fill="#263238"/>
<path d="M130.186 135.405C129.049 135.673 127.865 135.673 126.728 135.405C127.865 135.138 129.049 135.138 130.186 135.405Z" fill="#263238"/>
<path d="M138.313 143.773C138.313 143.881 134.146 143.973 128.997 143.973C123.849 143.973 119.689 143.881 119.689 143.773C119.689 143.664 123.857 143.572 128.997 143.572C134.138 143.572 138.313 143.664 138.313 143.773Z" fill="#263238"/>
<path d="M167.643 135.406C165.886 135.609 164.116 135.676 162.349 135.606C160.581 135.676 158.811 135.609 157.054 135.406C158.811 135.207 160.581 135.14 162.349 135.205C164.116 135.14 165.886 135.207 167.643 135.406Z" fill="#263238"/>
<path d="M170.777 143.325C170.777 143.433 166.509 143.525 161.245 143.525C155.981 143.525 151.705 143.433 151.705 143.325C151.705 143.217 155.973 143.124 161.245 143.124C166.517 143.124 170.777 143.217 170.777 143.325Z" fill="#263238"/>
<path d="M202.221 135.522C199.847 135.72 197.464 135.787 195.082 135.722C192.7 135.787 190.317 135.72 187.942 135.522C190.316 135.318 192.7 135.251 195.082 135.321C197.464 135.251 199.847 135.318 202.221 135.522Z" fill="#263238"/>
<path d="M204.892 143.656C204.892 143.772 200.779 143.857 195.7 143.857C190.621 143.857 186.5 143.772 186.5 143.656C186.5 143.541 190.613 143.456 195.7 143.456C200.786 143.456 204.892 143.548 204.892 143.656Z" fill="#263238"/>
<path d="M178.225 151.576H125.91C124.823 151.576 123.942 152.457 123.942 153.544V165.777C123.942 166.864 124.823 167.746 125.91 167.746H178.225C179.312 167.746 180.194 166.864 180.194 165.777V153.544C180.194 152.457 179.312 151.576 178.225 151.576Z" fill="#FCE28C"/>
<path d="M169.557 159.935C169.557 160.043 162.318 160.135 153.387 160.135C144.457 160.135 137.179 160.043 137.179 159.935C137.179 159.827 144.419 159.734 153.387 159.734C162.356 159.734 169.557 159.819 169.557 159.935Z" fill="white"/>
<path d="M199.088 151.275H186.677C185.667 151.275 184.848 152.094 184.848 153.104V166.017C184.848 167.027 185.667 167.846 186.677 167.846H199.088C200.098 167.846 200.917 167.027 200.917 166.017V153.104C200.917 152.094 200.098 151.275 199.088 151.275Z" fill="#EBEBEB"/>
<path d="M191.146 158.715H194.611L193.029 161.147L191.146 158.715Z" fill="#263238"/>
<path d="M180.194 179.771C180.194 179.887 171.248 179.972 160.218 179.972C149.189 179.972 140.243 179.887 140.243 179.771C140.243 179.655 149.189 179.57 160.218 179.57C171.248 179.57 180.194 179.663 180.194 179.771Z" fill="#E0E0E0"/>
<path d="M191.817 187.296C191.817 187.404 178.696 187.497 162.488 187.497C146.279 187.497 133.158 187.404 133.158 187.296C133.158 187.188 146.279 187.096 162.488 187.096C178.696 187.096 191.817 187.188 191.817 187.296Z" fill="#E0E0E0"/>
<path d="M225.531 200.34C225.531 200.456 197.397 200.549 162.688 200.549C127.978 200.549 99.8447 200.456 99.8447 200.34C99.8447 200.225 127.978 200.14 162.688 200.14C197.397 200.14 225.531 200.232 225.531 200.34Z" fill="#263238"/>
<path d="M163.939 214.982C163.74 212.616 163.673 210.24 163.738 207.866C163.673 205.495 163.74 203.121 163.939 200.757C164.142 203.121 164.209 205.495 164.139 207.866C164.209 210.24 164.142 212.616 163.939 214.982Z" fill="#263238"/>
<path d="M156.135 110.668L152.523 118.958H150.979L147.359 110.668H149.027L151.782 117.059L154.568 110.668H156.135Z" fill="#FCE28C"/>
<path d="M162.318 116.272H157.355C157.446 116.737 157.707 117.152 158.086 117.437C158.465 117.722 158.936 117.857 159.408 117.816C159.726 117.828 160.043 117.774 160.338 117.656C160.634 117.537 160.9 117.358 161.121 117.129L161.893 118.039C161.571 118.388 161.175 118.66 160.735 118.838C160.294 119.015 159.82 119.093 159.346 119.066C157.231 119.066 155.857 117.707 155.857 115.824C155.842 115.39 155.917 114.957 156.078 114.553C156.239 114.149 156.482 113.783 156.792 113.478C157.102 113.173 157.472 112.936 157.878 112.782C158.285 112.628 158.719 112.56 159.153 112.582C159.583 112.567 160.011 112.641 160.411 112.8C160.81 112.96 161.172 113.201 161.473 113.508C161.774 113.816 162.007 114.183 162.158 114.585C162.309 114.988 162.374 115.418 162.349 115.847C162.341 115.948 162.326 116.125 162.318 116.272ZM157.347 115.284H160.928C160.885 114.847 160.677 114.444 160.345 114.157C160.013 113.869 159.584 113.72 159.146 113.74C158.706 113.724 158.277 113.874 157.944 114.16C157.611 114.446 157.397 114.847 157.347 115.284Z" fill="#FCE28C"/>
<path d="M167.42 112.582V113.987C167.308 113.964 167.194 113.951 167.08 113.948C166.824 113.929 166.566 113.967 166.326 114.06C166.086 114.152 165.87 114.298 165.694 114.485C165.518 114.673 165.386 114.897 165.308 115.142C165.23 115.387 165.208 115.647 165.243 115.901V118.989H163.784V112.667H165.197V113.586C165.45 113.242 165.788 112.969 166.177 112.794C166.566 112.618 166.994 112.545 167.42 112.582Z" fill="#FCE28C"/>
<path d="M168.477 110.707C168.478 110.585 168.503 110.465 168.552 110.354C168.601 110.242 168.672 110.142 168.761 110.059C168.85 109.976 168.955 109.912 169.069 109.87C169.183 109.829 169.305 109.812 169.426 109.819C169.545 109.81 169.664 109.824 169.776 109.863C169.889 109.901 169.992 109.961 170.08 110.041C170.168 110.12 170.239 110.217 170.289 110.325C170.338 110.433 170.365 110.549 170.368 110.668C170.347 110.904 170.238 111.124 170.063 111.284C169.888 111.443 169.66 111.532 169.423 111.532C169.186 111.532 168.957 111.443 168.782 111.284C168.607 111.124 168.498 110.904 168.477 110.668V110.707ZM168.678 112.636H170.16V118.958H168.678V112.636Z" fill="#FCE28C"/>
<path d="M174.59 110.089C175.062 110.068 175.53 110.189 175.933 110.437L175.516 111.548C175.276 111.38 174.991 111.289 174.698 111.286C174.081 111.286 173.764 111.625 173.764 112.304V112.683H175.509V113.864H173.818V118.958H172.274V113.864H171.24V112.683H172.274V112.281C172.25 111.976 172.294 111.67 172.403 111.384C172.513 111.098 172.685 110.841 172.907 110.63C173.129 110.42 173.396 110.262 173.687 110.169C173.978 110.075 174.287 110.048 174.59 110.089ZM177.245 110.707C177.246 110.585 177.272 110.465 177.32 110.354C177.369 110.242 177.44 110.142 177.529 110.059C177.618 109.976 177.723 109.912 177.837 109.87C177.951 109.829 178.073 109.812 178.195 109.819C178.313 109.81 178.432 109.824 178.544 109.863C178.657 109.901 178.76 109.961 178.848 110.041C178.936 110.12 179.007 110.217 179.057 110.325C179.106 110.433 179.133 110.549 179.136 110.668C179.115 110.904 179.006 111.124 178.831 111.284C178.656 111.443 178.428 111.532 178.191 111.532C177.954 111.532 177.725 111.443 177.55 111.284C177.375 111.124 177.266 110.904 177.245 110.668V110.707ZM177.446 112.636H178.928V118.958H177.446V112.636Z" fill="#FCE28C"/>
<path d="M186.754 116.272H181.799C181.889 116.736 182.147 117.151 182.525 117.436C182.903 117.721 183.373 117.856 183.844 117.815C184.163 117.826 184.48 117.77 184.777 117.652C185.073 117.533 185.341 117.355 185.565 117.128L186.337 118.039C186.015 118.388 185.62 118.662 185.179 118.839C184.739 119.017 184.264 119.094 183.79 119.066C181.675 119.066 180.302 117.707 180.302 115.824C180.29 115.394 180.366 114.966 180.526 114.566C180.687 114.167 180.928 113.805 181.234 113.502C181.54 113.2 181.905 112.963 182.306 112.808C182.707 112.652 183.136 112.581 183.566 112.598C183.996 112.582 184.425 112.656 184.824 112.816C185.224 112.975 185.585 113.216 185.886 113.524C186.187 113.831 186.42 114.198 186.571 114.601C186.722 115.003 186.787 115.433 186.762 115.863C186.777 115.948 186.77 116.125 186.754 116.272ZM181.783 115.284H185.396C185.351 114.846 185.14 114.443 184.807 114.156C184.474 113.869 184.044 113.72 183.605 113.74C183.162 113.719 182.729 113.867 182.391 114.154C182.053 114.44 181.836 114.844 181.783 115.284Z" fill="#FCE28C"/>
<path d="M194.395 110.174V118.958H192.975V118.14C192.716 118.437 192.394 118.671 192.032 118.826C191.669 118.981 191.277 119.053 190.883 119.035C190.026 119.035 189.203 118.694 188.597 118.088C187.99 117.481 187.649 116.659 187.649 115.801C187.649 114.943 187.99 114.121 188.597 113.514C189.203 112.908 190.026 112.567 190.883 112.567C191.263 112.55 191.643 112.617 191.994 112.764C192.344 112.911 192.659 113.133 192.913 113.416V110.174H194.395ZM192.936 115.793C192.918 115.425 192.793 115.071 192.575 114.773C192.357 114.476 192.057 114.249 191.712 114.121C191.367 113.992 190.991 113.968 190.632 114.051C190.273 114.133 189.946 114.32 189.692 114.586C189.438 114.853 189.268 115.189 189.202 115.551C189.137 115.914 189.179 116.287 189.324 116.626C189.469 116.965 189.71 117.254 190.017 117.457C190.325 117.66 190.685 117.769 191.053 117.769C191.31 117.774 191.565 117.725 191.801 117.627C192.038 117.528 192.252 117.381 192.429 117.195C192.606 117.009 192.743 116.789 192.83 116.547C192.917 116.306 192.954 116.049 192.936 115.793Z" fill="#FCE28C"/>
<path d="M135.697 121.034C139.282 121.034 142.188 118.128 142.188 114.543C142.188 110.958 139.282 108.052 135.697 108.052C132.112 108.052 129.206 110.958 129.206 114.543C129.206 118.128 132.112 121.034 135.697 121.034Z" fill="#FCE28C"/>
<path d="M132.764 114.666L133.597 113.833L135.21 115.261L138.367 112.22L139.139 113.053L135.087 116.866L132.764 114.666Z" fill="white"/>
<path d="M163.599 274.738H112.658C109.014 274.726 105.524 273.268 102.954 270.685C100.384 268.102 98.9436 264.604 98.9497 260.961V214.982H163.638L163.599 274.738Z" fill="#EBEBEB"/>
<path d="M210.581 274.861L163.012 274.738V214.982H224.898V260.575C224.819 264.344 223.284 267.937 220.615 270.6C217.946 273.263 214.35 274.79 210.581 274.861Z" fill="#455A64"/>
<path d="M225.531 214.982C225.531 215.09 197.398 215.183 162.696 215.183C127.994 215.183 99.8525 215.09 99.8525 214.982C99.8525 214.874 127.978 214.781 162.696 214.781C197.413 214.781 225.531 214.874 225.531 214.982Z" fill="#263238"/>
<path d="M161.754 249.97C161.754 249.97 161.685 249.97 161.577 249.862L161.091 249.507L159.254 248.133L152.539 243.008C151.126 241.935 149.567 240.692 147.908 239.48C147.464 239.223 146.958 239.096 146.446 239.114C145.934 239.132 145.437 239.294 145.013 239.581C144.585 239.935 144.183 240.32 143.809 240.731L142.582 241.974L131.776 252.887L131.112 253.559L130.989 253.682L130.85 253.582L124.613 248.951L121.65 246.736C121.245 246.352 120.735 246.098 120.185 246.006C119.635 245.914 119.07 245.988 118.562 246.219C118.086 246.494 117.654 246.84 117.281 247.245L116.061 248.38L113.746 250.541L109.578 254.4L103.535 259.973L101.875 261.47L101.443 261.856C101.345 261.944 101.291 261.982 101.281 261.972C101.318 261.918 101.362 261.868 101.412 261.825L101.821 261.416L103.426 259.872L109.385 254.207L113.522 250.302L115.838 248.133L117.049 246.99L117.667 246.412C117.898 246.203 118.158 246.028 118.439 245.894C119.002 245.622 119.635 245.53 120.253 245.632C120.565 245.68 120.867 245.779 121.148 245.925C121.422 246.071 121.68 246.245 121.92 246.442L124.891 248.642L131.135 253.273H130.873L131.537 252.594L142.343 241.703L143.578 240.468C143.967 240.041 144.387 239.644 144.836 239.28C145.317 238.961 145.878 238.783 146.455 238.766C147.032 238.75 147.602 238.896 148.101 239.187C149.814 240.461 151.311 241.68 152.732 242.776L159.369 248.002L161.168 249.437L161.623 249.823C161.673 249.866 161.717 249.915 161.754 249.97Z" fill="#263238"/>
<path d="M136.507 229.902C136.461 229.902 136.507 229.408 136.252 228.551C135.92 227.353 135.198 226.299 134.199 225.556C133.517 225.047 132.723 224.706 131.884 224.561C130.929 224.391 129.947 224.476 129.036 224.808C128.027 225.177 127.151 225.838 126.52 226.707C125.838 227.634 125.47 228.755 125.47 229.906C125.47 231.057 125.838 232.178 126.52 233.105C127.125 233.927 127.948 234.563 128.896 234.942C129.844 235.321 130.879 235.428 131.884 235.251C132.725 235.106 133.519 234.762 134.199 234.247C135.198 233.505 135.92 232.451 136.252 231.253C136.484 230.404 136.461 229.902 136.507 229.902C136.519 230.023 136.519 230.144 136.507 230.265C136.508 230.61 136.469 230.955 136.391 231.291C136.104 232.555 135.387 233.679 134.361 234.471C133.655 235.025 132.827 235.403 131.946 235.575C130.875 235.782 129.767 235.682 128.751 235.286C127.734 234.89 126.851 234.214 126.203 233.337C125.467 232.344 125.069 231.141 125.069 229.906C125.069 228.67 125.467 227.467 126.203 226.475C126.883 225.549 127.823 224.848 128.905 224.46C129.88 224.115 130.929 224.035 131.946 224.229C132.826 224.404 133.653 224.782 134.361 225.333C135.385 226.126 136.103 227.25 136.391 228.513C136.469 228.852 136.508 229.199 136.507 229.547C136.519 229.665 136.519 229.784 136.507 229.902Z" fill="#263238"/>
<path d="M222.984 248.055C222.984 248.055 222.922 248.055 222.814 247.947L222.351 247.6L220.576 246.219L214.1 241.086C212.742 240.013 211.244 238.77 209.647 237.558C209.219 237.302 208.725 237.178 208.227 237.204C207.729 237.231 207.251 237.405 206.853 237.705C206.447 238.065 206.063 238.449 205.703 238.855L204.529 240.098L194.195 250.973L193.546 251.645L193.423 251.776L193.276 251.668L187.263 247.037L184.408 244.821C184.023 244.435 183.526 244.181 182.988 244.095C182.45 244.009 181.899 244.096 181.413 244.343C180.96 244.632 180.548 244.98 180.186 245.377L179.02 246.512L176.79 248.665L172.784 252.524L166.987 258.082L165.397 259.579L164.973 259.957C164.88 260.042 164.826 260.088 164.818 260.081C164.856 260.026 164.9 259.977 164.95 259.934C165.05 259.818 165.181 259.687 165.335 259.525L166.879 257.981L172.591 252.331L176.558 248.434C177.276 247.739 178.009 247.014 178.773 246.265L179.931 245.13L180.525 244.551C180.737 244.344 180.976 244.168 181.235 244.026C181.78 243.738 182.402 243.633 183.011 243.725C183.318 243.77 183.616 243.867 183.89 244.011C184.163 244.159 184.422 244.332 184.662 244.528L187.518 246.736L193.538 251.367H193.268L193.917 250.687L204.275 239.835L205.456 238.6C205.832 238.179 206.234 237.782 206.66 237.412C207.116 237.075 207.661 236.882 208.227 236.856C208.794 236.83 209.355 236.972 209.84 237.265C211.499 238.539 212.927 239.758 214.301 240.854L220.692 246.087L222.413 247.531L222.853 247.909L222.984 248.055Z" fill="#263238"/>
<path d="M196.742 228.181C196.703 228.181 196.742 227.687 196.495 226.838C196.166 225.637 195.443 224.582 194.442 223.843C193.865 223.412 193.208 223.099 192.509 222.923C191.811 222.747 191.084 222.711 190.372 222.817C189.659 222.924 188.975 223.17 188.358 223.542C187.741 223.914 187.204 224.405 186.777 224.985C186.096 225.913 185.728 227.034 185.728 228.184C185.728 229.335 186.096 230.456 186.777 231.384C187.408 232.252 188.284 232.911 189.294 233.275C190.147 233.59 191.067 233.685 191.967 233.55C192.867 233.415 193.718 233.055 194.442 232.503C195.442 231.762 196.164 230.708 196.495 229.508C196.601 229.063 196.683 228.612 196.742 228.157C196.762 228.278 196.762 228.4 196.742 228.52C196.743 228.866 196.704 229.21 196.626 229.547C196.361 230.812 195.665 231.947 194.658 232.758C193.949 233.306 193.122 233.681 192.242 233.854C191.226 234.055 190.175 233.975 189.201 233.622C188.12 233.238 187.179 232.539 186.499 231.615C185.763 230.623 185.366 229.42 185.366 228.184C185.366 226.949 185.763 225.746 186.499 224.754C187.147 223.876 188.031 223.2 189.047 222.804C190.063 222.408 191.171 222.308 192.242 222.515C193.122 222.688 193.949 223.063 194.658 223.611C195.684 224.406 196.401 225.533 196.688 226.799C196.765 227.136 196.804 227.48 196.804 227.826C196.804 227.947 196.783 228.067 196.742 228.181Z" fill="#263238"/>
<path d="M163.962 93.6646C173.834 93.6646 181.838 85.6613 181.838 75.7888C181.838 65.9162 173.834 57.913 163.962 57.913C154.089 57.913 146.086 65.9162 146.086 75.7888C146.086 85.6613 154.089 93.6646 163.962 93.6646Z" fill="#F5F5F5"/>
<path d="M175.516 89.3501C175.211 86.5145 173.851 83.8972 171.707 82.0172C169.562 80.1371 166.79 79.1317 163.938 79.2004C157.594 79.2004 153.248 84.0012 152.361 89.3887C152.361 89.3887 156.282 93.7264 163.938 93.6646C171.595 93.6029 175.516 89.3501 175.516 89.3501Z" fill="#E0E0E0"/>
<path d="M171.235 74.0419C171.854 70.21 169.25 66.6016 165.418 65.9823C161.586 65.363 157.978 67.9673 157.359 71.7992C156.739 75.6311 159.344 79.2395 163.176 79.8588C167.007 80.478 170.616 77.8737 171.235 74.0419Z" fill="#E0E0E0"/>
<path d="M175.431 88.7403C175.212 87.5968 174.847 86.4864 174.343 85.4368C173.693 84.2629 172.835 83.2168 171.811 82.3494C170.467 81.2141 168.919 80.3445 167.25 79.7869L166.879 79.6712L167.219 79.4936C168.397 78.8533 169.365 77.8856 170.005 76.7073C170.563 75.669 170.841 74.5039 170.814 73.3257C170.786 72.1476 170.454 70.9967 169.849 69.9853C169.244 68.974 168.387 68.1368 167.362 67.5555C166.337 66.9742 165.179 66.6686 164 66.6686C162.822 66.6686 161.664 66.9742 160.638 67.5555C159.613 68.1368 158.756 68.974 158.152 69.9853C157.547 70.9967 157.214 72.1476 157.187 73.3257C157.159 74.5039 157.438 75.669 157.995 76.7073C158.32 77.3093 158.731 77.8606 159.215 78.3436C159.684 78.7953 160.202 79.194 160.759 79.5322L161.067 79.7252L160.712 79.8255C159.004 80.2754 157.434 81.1427 156.143 82.3494C155.164 83.2772 154.354 84.3691 153.75 85.5757C153.361 86.3496 153.046 87.1585 152.809 87.9916C152.724 88.2772 152.67 88.501 152.631 88.6476C152.621 88.7248 152.6 88.8001 152.569 88.8715C152.556 88.7949 152.556 88.7165 152.569 88.6399C152.569 88.4856 152.631 88.254 152.701 87.9684C152.903 87.1165 153.195 86.2886 153.573 85.4985C154.158 84.2508 154.963 83.1187 155.95 82.1565C157.25 80.9032 158.842 79.9934 160.581 79.5091L160.535 79.8024C159.952 79.4584 159.409 79.0521 158.914 78.5906C158.4 78.0859 157.963 77.5086 157.617 76.8771C156.854 75.4529 156.591 73.8136 156.871 72.2221C157.151 70.6307 157.957 69.1794 159.161 68.1013C160.479 66.9135 162.191 66.2561 163.966 66.2561C165.74 66.2561 167.452 66.9135 168.77 68.1013C169.631 68.875 170.292 69.8454 170.697 70.9298C171.102 72.0142 171.239 73.1804 171.095 74.329C170.952 75.4776 170.533 76.5746 169.874 77.5263C169.215 78.478 168.336 79.2562 167.312 79.7947V79.4936C169.015 80.0761 170.588 80.986 171.943 82.1719C172.979 83.0761 173.835 84.1682 174.466 85.3905C174.687 85.8431 174.87 86.3129 175.014 86.7952C175.134 87.1446 175.225 87.5035 175.285 87.8681C175.323 88.1382 175.354 88.3621 175.377 88.5473C175.4 88.7325 175.447 88.7403 175.431 88.7403Z" fill="#263238"/>
<path d="M181.838 75.7887C181.813 75.6927 181.8 75.5943 181.799 75.4954C181.799 75.287 181.799 75.0091 181.737 74.6541L181.699 74.0289C181.699 73.7973 181.621 73.5503 181.575 73.257C181.495 72.6336 181.369 72.017 181.197 71.4123C180.778 69.7467 180.109 68.1541 179.213 66.6887C177.093 63.1505 173.807 60.4609 169.92 59.082C166.033 57.7031 161.786 57.7209 157.911 59.1324C157.116 59.4185 156.343 59.7589 155.595 60.1512C154.84 60.5648 154.115 61.0317 153.426 61.5482C152.72 62.0718 152.05 62.6417 151.419 63.254C150.796 63.8993 150.216 64.5851 149.683 65.3071C148.586 66.7848 147.734 68.4292 147.159 70.1774C145.945 73.8012 145.945 77.7221 147.159 81.3459C147.734 83.0965 148.586 84.7434 149.683 86.2239C150.218 86.9443 150.798 87.6301 151.419 88.277C152.05 88.8893 152.72 89.4592 153.426 89.9828C154.117 90.4967 154.842 90.9634 155.595 91.3798C159.146 93.252 163.221 93.8849 167.173 93.1782C169.654 92.7218 172.011 91.745 174.087 90.3122C176.164 88.8795 177.913 87.0232 179.221 84.8655C180.118 83.3979 180.787 81.8026 181.205 80.1341C181.376 79.5321 181.503 78.918 181.583 78.2971C181.629 78.027 181.676 77.78 181.706 77.5253L181.745 76.9001C181.745 76.5451 181.791 76.2672 181.807 76.0511C181.808 75.9547 181.821 75.8589 181.845 75.7655C181.855 75.863 181.855 75.9613 181.845 76.0588C181.845 76.2672 181.845 76.5528 181.845 76.9078C181.845 77.1008 181.845 77.3092 181.845 77.533C181.845 77.7569 181.776 78.0193 181.745 78.3049C181.676 78.9327 181.56 79.5545 181.398 80.165C180.997 81.8572 180.341 83.4786 179.453 84.9735C178.152 87.1753 176.398 89.0756 174.308 90.5486C172.218 92.0216 169.838 93.0337 167.327 93.5178C164.15 94.1124 160.872 93.8459 157.833 92.746C157.024 92.4544 156.235 92.1089 155.472 91.7117C154.699 91.2905 153.956 90.816 153.249 90.2915C152.526 89.7574 151.84 89.1746 151.196 88.5472C150.557 87.8911 149.964 87.1922 149.42 86.4555C148.293 84.9439 147.417 83.2602 146.827 81.4694C146.235 79.6248 145.92 77.7025 145.893 75.7655C145.918 73.8251 146.235 71.8996 146.835 70.0539C147.421 68.2652 148.294 66.5838 149.42 65.0755C149.964 64.3363 150.557 63.6349 151.196 62.9761C151.843 62.3552 152.529 61.7752 153.249 61.2395C153.956 60.7151 154.699 60.2405 155.472 59.8193C156.235 59.4221 157.024 59.0766 157.833 58.7851C160.87 57.6854 164.145 57.4189 167.319 58.0132C169.832 58.4959 172.213 59.5073 174.305 60.9804C176.397 62.4535 178.151 64.3545 179.453 66.5575C180.341 68.0497 180.997 69.6686 181.398 71.3583C181.56 71.9714 181.676 72.5957 181.745 73.2262C181.745 73.4963 181.822 73.751 181.845 73.998C181.868 74.245 181.845 74.4379 181.845 74.6309C181.845 74.986 181.845 75.2715 181.845 75.4799C181.854 75.5828 181.851 75.6863 181.838 75.7887Z" fill="#263238"/>
<path d="M90.0275 156.987C80.6419 161.849 73.4407 170.224 68.2694 179.439C63.098 188.655 59.7791 198.774 56.4525 208.816L53.5581 260.606C64.4796 242.028 73.2477 220.185 75.6173 198.759L68.3465 198.11C73.2246 197.338 77.3153 193.834 79.9241 189.62C82.5329 185.406 83.8682 180.597 85.1726 175.85L76.3042 177.163C83.3 172.449 88.2139 165.225 90.0275 156.987Z" fill="#455A64"/>
<path d="M90.0275 156.987C80.6419 161.849 73.4407 170.224 68.2694 179.439C63.098 188.655 59.7791 198.774 56.4525 208.816L53.5581 260.606C64.4796 242.028 73.2477 220.185 75.6173 198.759L68.3465 198.11C73.2246 197.338 77.3153 193.834 79.9241 189.62C82.5329 185.406 83.8682 180.597 85.1726 175.85L76.3042 177.163C83.3 172.449 88.2139 165.225 90.0275 156.987Z" fill="#455A64"/>
<path d="M51.9372 272.747C51.9372 272.747 28.2341 244.366 28.5042 217.275H38.0827C38.0827 217.275 27.6783 210.436 28.5042 206.608C29.3301 202.78 29.6002 188.269 29.6002 188.269L38.3606 190.461C38.3606 190.461 31.7922 187.181 30.9664 181.971C30.1405 176.761 32.8805 152.718 32.8805 152.718C32.8805 152.718 43.5551 163.933 46.8431 175.426C50.1311 186.918 58.7449 200.325 56.2132 235.351C53.6816 270.377 51.9372 272.747 51.9372 272.747Z" fill="#455A64"/>
<path d="M63.9623 275.441C63.9623 275.441 89.6491 258.329 95.353 236.486L87.6346 234.394C87.6346 234.394 97.4987 231.168 97.6685 227.911C97.8383 224.654 100.756 212.929 100.756 212.929L93.2381 212.775C93.2381 212.775 99.2353 211.571 101.034 207.573C102.832 203.575 105.966 183.592 105.966 183.592C105.966 183.592 94.9284 190.284 89.7571 198.805C84.5858 207.326 74.7371 216.217 69.1104 244.93C63.4837 273.642 63.9623 275.441 63.9623 275.441Z" fill="#455A64"/>
<path d="M39.3638 177.417C39.3638 177.417 39.3638 177.518 39.441 177.71C39.5181 177.903 39.5644 178.22 39.6493 178.583C39.8269 179.354 40.0739 180.512 40.4212 181.956C40.7685 183.399 41.1313 185.213 41.5404 187.297C41.9494 189.381 42.4511 191.758 42.9297 194.39C43.9485 199.654 45.0136 205.967 46.1174 212.914C47.2211 219.861 48.2554 227.633 49.2047 235.753C50.1541 243.873 50.8565 251.637 51.4122 258.7C51.9679 265.762 52.3307 272.137 52.5391 277.486C52.678 280.164 52.7397 282.588 52.8092 284.718C52.8787 286.849 52.9173 288.678 52.9327 290.175C52.9481 291.673 52.9327 292.815 52.9713 293.625V294.521C52.9713 294.721 52.9713 294.829 52.9713 294.829C52.9584 294.727 52.9584 294.623 52.9713 294.521V293.625C52.9713 292.815 52.9018 291.657 52.8555 290.175C52.8092 288.693 52.7552 286.849 52.6626 284.726C52.5699 282.603 52.485 280.18 52.3384 277.502C52.0837 272.153 51.6592 265.793 51.1189 258.73C50.5786 251.668 49.8067 243.919 48.8805 235.799C47.9543 227.679 46.8738 219.969 45.7932 212.968C44.7126 205.968 43.6706 199.677 42.7058 194.444C42.2427 191.804 41.7719 189.435 41.3783 187.343C40.9846 185.251 40.6064 183.484 40.3208 181.986C40.0353 180.489 39.8037 179.401 39.6493 178.606C39.5799 178.228 39.5181 177.942 39.4795 177.718C39.4316 177.622 39.3928 177.521 39.3638 177.417Z" fill="#263238"/>
<path d="M48.649 290.105C48.649 290.105 26.9526 265.507 20.2222 250.626L25.3086 248.426C21.6192 249.036 17.8449 247.454 14.9814 245.045C12.1179 242.637 10.0262 239.473 7.96538 236.355L14.6649 235.22C8.49918 233.47 3.24625 229.408 0 223.882C7.90363 225.186 15.0586 229.524 20.9477 234.958C25.7254 239.349 29.7621 244.451 33.6445 249.669C35.5437 252.206 37.1952 254.92 38.5765 257.773C42.2505 265.329 48.6645 281.083 48.649 290.105Z" fill="#455A64"/>
<path d="M95.6927 197.925C95.6705 198.011 95.6367 198.094 95.5924 198.172L95.2605 198.89C94.944 199.538 94.4887 200.433 93.9329 201.614C93.3772 202.795 92.644 204.246 91.8412 205.936C91.0385 207.627 90.1046 209.541 89.1244 211.679C87.1176 215.947 84.8175 221.057 82.3399 226.768C79.8623 232.48 77.2766 238.824 74.6755 245.524C72.0744 252.224 69.7666 258.645 67.729 264.55C65.6913 270.454 63.9779 275.78 62.5885 280.28C61.8785 282.526 61.2841 284.571 60.7361 286.362C60.1881 288.153 59.7405 289.696 59.3777 290.993C59.0149 292.29 58.7294 293.216 58.521 293.903L58.2894 294.675C58.2675 294.763 58.2365 294.848 58.1968 294.929C58.2071 294.838 58.2251 294.748 58.2508 294.659C58.2971 294.466 58.3666 294.219 58.4438 293.887L59.2156 290.955C59.5552 289.689 59.9874 288.13 60.5046 286.323C61.0217 284.517 61.6083 282.464 62.303 280.226C63.6537 275.711 65.3903 270.37 67.3585 264.465C69.3267 258.56 71.6962 252.116 74.3051 245.408C76.9139 238.701 79.5304 232.372 82.0235 226.653C84.5165 220.933 86.8552 215.847 88.8851 211.594C89.8885 209.456 90.8378 207.55 91.6637 205.867C92.4896 204.184 93.2074 202.78 93.8172 201.576L95.2065 198.882L95.5769 198.187C95.6066 198.096 95.6454 198.008 95.6927 197.925Z" fill="#263238"/>
<path d="M50.4937 300.672C50.4431 300.525 50.4094 300.372 50.3934 300.217L50.185 298.912C50.1001 298.341 49.9998 297.646 49.8454 296.844C49.691 296.041 49.5675 295.123 49.3437 294.119C48.9578 292.105 48.402 289.727 47.692 287.103C46.9819 284.479 46.0634 281.654 44.9596 278.721C43.8559 275.788 42.6441 273.063 41.4709 270.617C40.2977 268.17 39.1554 266.032 38.0748 264.264C37.5731 263.361 37.0714 262.582 36.6469 261.887C36.2224 261.193 35.8751 260.59 35.5355 260.112L34.8254 258.993C34.7389 258.866 34.664 258.732 34.6016 258.591C34.715 258.696 34.8137 258.815 34.8949 258.946L35.6667 260.027C35.9986 260.49 36.3999 261.077 36.8399 261.764C37.2798 262.451 37.797 263.222 38.3141 264.118C39.3947 265.87 40.5756 268.023 41.8028 270.455C43.03 272.886 44.2187 275.641 45.3378 278.574C46.457 281.507 47.3369 284.379 48.047 287.011C48.7571 289.642 49.2742 292.043 49.5907 294.065C49.7914 295.076 49.9071 296.002 50.0306 296.813C50.1541 297.623 50.2467 298.318 50.3008 298.889C50.3548 299.46 50.4011 299.862 50.432 300.209C50.4731 300.36 50.4939 300.516 50.4937 300.672Z" fill="#263238"/>
<path d="M79.1212 294.883H31.6377V304.57H79.1212V294.883Z" fill="#FCE28C"/>
<path d="M36.1606 304.57L41.3011 337.149H69.9904L74.7758 304.57H36.1606Z" fill="#FCE28C"/>
<path d="M76.2113 304.57C76.2113 304.678 67.2271 304.771 56.1435 304.771C45.0599 304.771 36.0757 304.678 36.0757 304.57C36.0757 304.462 45.0599 304.362 56.1435 304.362C67.2271 304.362 76.2113 304.454 76.2113 304.57Z" fill="#263238"/>
<g opacity="0.3">
<path d="M90.0275 156.987C80.6419 161.849 73.4407 170.224 68.2694 179.439C63.098 188.655 59.7791 198.774 56.4525 208.816L53.5581 260.606C64.4796 242.028 73.2477 220.185 75.6173 198.759L68.3465 198.11C73.2246 197.338 77.3153 193.834 79.9241 189.62C82.5329 185.406 83.8682 180.597 85.1726 175.85L76.3042 177.163C83.3 172.449 88.2139 165.225 90.0275 156.987Z" fill="black"/>
</g>
<path d="M311.105 198.789C311.105 198.789 318.978 211.857 320.151 224.299C321.325 236.741 313.012 337.28 313.012 337.28H215.065C215.065 337.28 241.308 213.13 249.891 205.165L250.477 196.906L311.105 198.789Z" fill="#263238"/>
<path d="M315.288 208.753C315.31 209.338 315.297 209.923 315.25 210.506C315.137 212.181 314.823 213.837 314.316 215.438C313.522 217.984 312.284 220.37 310.657 222.485C309.644 223.808 308.478 225.007 307.184 226.058C305.723 227.207 304.175 228.239 302.553 229.145C300.863 230.133 299.057 231.09 297.25 232.233C295.358 233.351 293.635 234.734 292.133 236.339C290.599 238.121 289.415 240.177 288.644 242.398C287.874 244.779 287.339 247.23 287.047 249.715C286.699 252.262 286.476 254.894 286.128 257.58C285.816 260.332 285.194 263.04 284.276 265.653C283.28 268.37 281.653 270.812 279.529 272.778C277.306 274.735 274.79 276.331 272.073 277.509C266.67 279.986 260.989 281.569 256.196 284.455C253.846 285.847 251.788 287.682 250.137 289.858C248.629 292.006 247.469 294.379 246.703 296.89C245.159 301.783 244.464 306.669 243.183 311.092C243.013 311.64 242.843 312.188 242.681 312.728C242.519 313.268 242.303 313.785 242.118 314.31C241.722 315.328 241.273 316.325 240.775 317.297C240.32 318.262 239.741 319.142 239.231 320.022C238.946 320.446 238.652 320.863 238.367 321.272L237.942 321.882L237.479 322.461C235.304 325.237 232.698 327.647 229.761 329.6C227.548 331.079 225.164 332.281 222.66 333.182C221.077 333.737 219.454 334.168 217.805 334.471L216.516 334.664L216.068 334.718L216.508 334.625L217.79 334.393C219.426 334.06 221.036 333.606 222.606 333.035C228.397 330.882 233.475 327.159 237.271 322.283L237.726 321.712L238.151 321.102L239 319.86C239.509 318.988 240.08 318.115 240.543 317.151C241.036 316.189 241.476 315.203 241.863 314.194C242.048 313.677 242.226 313.152 242.411 312.651C242.596 312.149 242.743 311.57 242.905 311.022C244.171 306.63 244.819 301.76 246.394 296.797C247.171 294.249 248.346 291.839 249.875 289.658C251.552 287.427 253.65 285.547 256.05 284.124C260.905 281.183 266.57 279.601 271.957 277.131C274.637 275.983 277.12 274.42 279.313 272.5C281.383 270.582 282.969 268.201 283.944 265.553C284.842 262.946 285.443 260.245 285.735 257.503C286.082 254.832 286.313 252.2 286.668 249.645C286.97 247.137 287.512 244.663 288.289 242.259C289.085 239.996 290.297 237.902 291.863 236.084C293.395 234.463 295.149 233.068 297.073 231.94C298.894 230.828 300.708 229.871 302.391 228.906C304.011 227.997 305.559 226.965 307.022 225.819C308.303 224.787 309.461 223.612 310.472 222.315C312.093 220.23 313.339 217.88 314.154 215.368C314.68 213.782 315.019 212.14 315.165 210.475C315.227 209.904 315.227 209.471 315.25 209.17C315.273 208.869 315.288 208.753 315.288 208.753Z" fill="#455A64"/>
<path d="M318.036 217.892C318.093 218.021 318.142 218.152 318.183 218.286C318.323 218.668 318.434 219.06 318.515 219.459C318.814 221.01 318.785 222.605 318.43 224.144C317.876 226.581 316.781 228.863 315.227 230.821C313.125 233.351 310.74 235.633 308.118 237.62C305.317 239.936 302.129 242.414 299.682 245.918C298.415 247.716 297.527 249.754 297.073 251.907C296.647 254.201 296.389 256.522 296.301 258.854C296.21 261.332 295.866 263.794 295.275 266.202C294.627 268.711 293.682 271.134 292.458 273.418C289.881 278.242 286.147 282.351 281.59 285.374C276.874 288.461 271.556 289.943 266.887 292.267C264.573 293.355 262.442 294.798 260.573 296.543C258.838 298.271 257.436 300.304 256.436 302.54C254.452 306.908 253.634 311.455 252.53 315.592C252.019 317.602 251.39 319.582 250.647 321.519C249.94 323.302 249.036 325 247.953 326.583C246.95 328.005 245.779 329.301 244.465 330.442C243.863 331.005 243.207 331.468 242.597 331.947C241.987 332.425 241.339 332.819 240.69 333.159C238.534 334.424 236.189 335.336 233.744 335.86C232.208 336.18 230.643 336.343 229.074 336.346L227.855 336.285H229.074C230.632 336.243 232.183 336.054 233.705 335.721C236.114 335.17 238.421 334.246 240.544 332.981C241.177 332.642 241.771 332.209 242.412 331.769C243.052 331.329 243.662 330.828 244.256 330.264C245.548 329.119 246.699 327.824 247.683 326.405C248.744 324.834 249.629 323.152 250.323 321.388C251.05 319.459 251.666 317.491 252.168 315.491C253.264 311.37 254.059 306.8 256.027 302.37C257.039 300.089 258.463 298.015 260.226 296.249C262.123 294.474 264.288 293.008 266.64 291.904C271.348 289.55 276.674 288.045 281.305 285.027C287.99 280.593 292.809 273.854 294.843 266.094C295.428 263.708 295.772 261.27 295.869 258.815C295.947 256.46 296.205 254.115 296.641 251.799C297.107 249.604 298.016 247.526 299.312 245.694C301.812 242.151 305.039 239.666 307.848 237.373C310.501 235.422 312.922 233.175 315.065 230.674C316.616 228.751 317.72 226.507 318.299 224.106C318.657 222.587 318.709 221.013 318.453 219.474C318.229 218.425 318.006 217.9 318.036 217.892Z" fill="#455A64"/>
<path d="M218.623 147.979C218.623 147.979 224.975 191.788 234.747 196.041C239.671 198.195 243.631 196.342 246.324 191.41C249.018 186.478 255.895 150.642 255.895 150.642L236.885 150.194L236.175 157.318L228.842 143.68L218.623 147.979Z" fill="#936760"/>
<path d="M246.649 176.583C246.611 176.46 246.557 176.344 246.487 176.236L245.969 175.279L244.055 171.767C242.419 168.803 240.196 164.697 237.718 160.151C235.241 155.605 233.087 151.506 231.49 148.473L229.606 144.93L229.089 143.973C228.966 143.757 228.896 143.641 228.881 143.649C228.915 143.772 228.962 143.89 229.02 144.004L229.483 144.992C229.892 145.849 230.494 147.076 231.258 148.596C232.802 151.622 234.94 155.775 237.433 160.321C239.926 164.867 242.172 168.958 243.862 171.898C244.711 173.365 245.406 174.538 245.908 175.348L246.487 176.275C246.53 176.383 246.585 176.486 246.649 176.583Z" fill="#6F4C47"/>
<path d="M312.896 158.221L307.47 182.496L310.04 198.789H250.408L254.305 122.74L269.171 121.474L305.494 127.61L312.896 158.221Z" fill="#FCE28C"/>
<path d="M297.729 127.17C297.729 127.17 313.258 125.742 320.66 136.309C325.191 142.777 331.543 157.635 331.543 157.635L310.866 161.208L297.729 127.17Z" fill="#FCE28C"/>
<g opacity="0.3">
<path d="M307.145 158.507C306.095 156.36 304.457 154.555 302.421 153.303C300.385 152.052 298.035 151.404 295.645 151.437C294.611 151.437 293.445 151.715 292.897 152.587C292.349 153.459 292.65 154.709 293.052 155.72C293.569 157.04 294.256 158.437 295.522 159.07C296.448 159.533 297.536 159.51 298.532 159.842C299.72 160.298 300.806 160.986 301.727 161.864C302.553 162.48 303.266 163.235 303.834 164.095C304.216 164.824 304.491 165.604 304.652 166.41C305.664 170.378 306.466 178.567 307.47 182.534L308.581 179.115C308.612 175.852 308.64 172.59 308.666 169.328C308.697 165.623 308.697 161.826 307.145 158.507Z" fill="black"/>
</g>
<path d="M288.606 178.745C288.606 178.683 289.378 178.822 290.721 178.922C292.416 179.056 294.121 179.015 295.807 178.799C297.494 178.572 299.155 178.177 300.762 177.618C301.997 177.185 302.738 176.846 302.761 176.9C302.614 177.023 302.451 177.124 302.275 177.201C301.814 177.446 301.34 177.665 300.855 177.857C297.632 179.138 294.141 179.594 290.698 179.185C290.178 179.124 289.663 179.034 289.154 178.914C288.963 178.89 288.777 178.832 288.606 178.745Z" fill="#263238"/>
<path d="M262.58 179.81C262.58 179.717 271.07 182.125 281.42 185.212C291.771 188.3 300.199 190.831 300.168 190.932C300.137 191.032 291.678 188.616 281.32 185.529C270.962 182.442 262.58 179.91 262.58 179.81Z" fill="#263238"/>
<g opacity="0.3">
<path d="M289.031 178.845C289.791 179.972 290.845 180.871 292.079 181.443C293.313 182.016 294.679 182.241 296.031 182.094C297.322 181.95 298.544 181.436 299.55 180.614C300.556 179.793 301.304 178.699 301.704 177.463C297.672 179.02 293.304 179.496 289.031 178.845Z" fill="black"/>
</g>
<g opacity="0.3">
<path d="M297.907 190.16L297.691 190.245C292.365 191.194 287.371 190.245 282.254 188.423C277.137 186.602 272.398 183.993 267.682 181.345L297.907 190.16Z" fill="black"/>
</g>
<path d="M254.305 122.74C254.305 122.74 244.472 123.944 240.659 132.342C238.039 138.331 235.822 144.488 234.021 150.773L254.089 155.288C254.089 155.288 257.246 138.308 257.485 132.342C257.756 125.789 258.018 122.547 254.305 122.74Z" fill="#FCE28C"/>
<path d="M252.415 157.974C252.237 156.104 252.18 154.225 252.245 152.347C252.189 150.472 252.253 148.595 252.438 146.728C252.616 148.596 252.673 150.473 252.607 152.347C252.663 154.225 252.599 156.105 252.415 157.974Z" fill="#263238"/>
<path d="M263.305 68.9349C268.608 62.4514 275.74 58.7157 284.145 58.5768C288.869 58.4996 290.829 59.4798 294.233 60.3983C297.635 61.2211 300.64 63.2126 302.723 66.025C305.139 69.452 307.169 73.288 307.624 77.4483C308.088 81.732 308.558 86.0388 308.234 90.3302C307.91 94.6217 306.752 98.9363 304.221 102.425L293.299 104.324C287.263 104.524 281.15 104.725 275.277 103.351C269.403 101.977 263.699 98.8128 260.55 93.6646C256.181 86.5096 257.995 75.426 263.305 68.9349Z" fill="#263238"/>
<path d="M300.909 108.569C300.909 108.569 301.087 108.839 301.565 109.14C302.246 109.563 303.014 109.827 303.811 109.912C305.014 110.045 306.228 109.799 307.285 109.209C308.567 108.433 309.501 107.192 309.892 105.744C310.283 104.296 310.101 102.754 309.384 101.437C308.77 100.397 307.847 99.5743 306.744 99.0829C306.017 98.7544 305.226 98.5909 304.429 98.6043C304.136 98.5839 303.844 98.6397 303.58 98.7664C304.613 98.8078 305.629 99.0434 306.574 99.4611C307.547 99.9671 308.351 100.745 308.89 101.699C309.484 102.886 309.621 104.251 309.273 105.532C308.926 106.813 308.119 107.922 307.007 108.646C306.074 109.197 305.001 109.465 303.919 109.418C302.87 109.333 301.848 109.045 300.909 108.569Z" fill="#E0E0E0"/>
<path d="M252.716 100.634C252.82 99.3913 253.207 98.1885 253.848 97.1182C254.489 96.0479 255.366 95.1385 256.413 94.4597C257.476 93.8154 258.717 93.5258 259.956 93.6326C261.195 93.7394 262.368 94.2372 263.305 95.054L265.026 97.0994C266.356 97.717 267.461 98.7332 268.187 100.007C268.913 101.281 269.225 102.749 269.079 104.208C268.879 105.662 268.269 107.029 267.32 108.148C266.372 109.268 265.123 110.094 263.722 110.529C262.311 110.926 260.822 110.953 259.397 110.609C257.973 110.264 256.66 109.559 255.587 108.561C254.537 107.545 253.732 106.303 253.235 104.93C252.737 103.556 252.56 102.087 252.716 100.634Z" fill="#263238"/>
<path d="M254.861 107.998C254.442 107.352 254.236 106.59 254.275 105.821C254.367 104.424 255.379 102.595 256.768 100.92C257.989 99.4807 259.475 98.2886 261.144 97.408C262.425 96.7211 263.305 96.4741 263.274 96.3815C262.464 96.4489 261.675 96.6827 260.959 97.0684C259.172 97.8743 257.589 99.0719 256.328 100.573C255.628 101.39 255.034 102.292 254.56 103.259C254.133 104.045 253.893 104.919 253.858 105.813C253.842 106.426 254.011 107.028 254.344 107.542C254.653 107.897 254.861 108.021 254.861 107.998Z" fill="#455A64"/>
<path d="M260.164 111.224C260.341 111.224 259.6 107.913 260.65 104.007C261.699 100.102 263.907 97.5855 263.737 97.4852C263.16 97.9311 262.67 98.4808 262.294 99.106C261.292 100.556 260.553 102.17 260.109 103.876C259.665 105.58 259.519 107.348 259.677 109.101C259.709 109.833 259.874 110.552 260.164 111.224Z" fill="#455A64"/>
<path d="M293.299 122.038C293.229 118.178 293.137 115.091 293.137 115.091C293.137 115.091 302.044 114.111 304.498 102.703C305.725 97.0299 305.949 87.6212 305.888 79.926C305.834 72.9794 299.929 63.563 291.377 63.5321L287.572 63.0845L273.015 68.8733C271.999 68.9211 271.038 69.3493 270.323 70.0728C269.608 70.7963 269.191 71.7622 269.156 72.7788L268.754 121.513L282.825 155.674L292.921 141.99L293.299 122.038Z" fill="#936760"/>
<path d="M287.387 100.025C287.471 99.4401 287.768 98.9072 288.22 98.5272C288.634 98.1711 289.154 97.9609 289.699 97.9288C290.244 97.8967 290.785 98.0446 291.238 98.3497C291.708 98.711 292.072 99.1914 292.293 99.7411C292.515 100.291 292.585 100.89 292.496 101.476C292.247 101.827 291.925 102.12 291.552 102.336C291.179 102.552 290.764 102.685 290.335 102.726C290.199 102.734 290.062 102.734 289.926 102.726C289.247 102.723 288.594 102.464 288.097 102C287.837 101.746 287.638 101.436 287.515 101.094C287.392 100.752 287.348 100.386 287.387 100.025Z" fill="#6F4C47"/>
<path d="M300.23 87.7987C300.214 88.1843 300.047 88.5482 299.766 88.8123C299.485 89.0763 299.111 89.2196 298.725 89.2111C298.536 89.2163 298.348 89.1836 298.173 89.1149C297.997 89.0462 297.836 88.943 297.701 88.8113C297.566 88.6797 297.458 88.5222 297.385 88.3483C297.312 88.1743 297.274 87.9875 297.274 87.7987C297.292 87.4138 297.459 87.051 297.74 86.7873C298.021 86.5236 298.394 86.3798 298.779 86.3862C298.968 86.3811 299.156 86.4138 299.331 86.4824C299.507 86.5511 299.668 86.6543 299.803 86.786C299.938 86.9177 300.046 87.0752 300.119 87.2491C300.192 87.423 300.23 87.6099 300.23 87.7987Z" fill="#263238"/>
<path d="M303.055 84.1942C302.862 84.3717 301.789 83.4841 300.199 83.4224C298.609 83.3606 297.405 84.0707 297.243 83.8701C297.081 83.6694 297.367 83.4378 297.891 83.0982C298.607 82.6622 299.439 82.4548 300.276 82.5039C301.103 82.5485 301.895 82.8538 302.538 83.3761C303.001 83.7543 303.148 84.1093 303.055 84.1942Z" fill="#263238"/>
<path d="M293.075 96.2271C293.925 96.0077 294.799 95.8988 295.676 95.9029C296.085 95.9029 296.448 95.8257 296.556 95.5479C296.617 95.1329 296.547 94.7093 296.355 94.3361C296.024 93.3327 295.684 92.2753 295.321 91.1793C293.901 86.6872 292.89 83.0055 293.075 82.9515C293.26 82.8974 294.557 86.4865 295.977 90.9786C296.317 92.0823 296.649 93.1397 296.957 94.1508C297.187 94.6517 297.231 95.2183 297.081 95.7486C297.016 95.89 296.918 96.014 296.796 96.1106C296.674 96.2072 296.531 96.2735 296.379 96.3043C296.151 96.357 295.917 96.3778 295.684 96.366C294.812 96.4328 293.935 96.3861 293.075 96.2271Z" fill="#263238"/>
<path d="M293.137 115.083C287.713 114.869 282.454 113.154 277.947 110.128C277.947 110.128 281.614 118.333 293.199 117.885L293.137 115.083Z" fill="#6F4C47"/>
<path d="M288.336 97.0684C288.598 97.0684 288.506 98.7896 289.879 100.094C291.253 101.398 293.137 101.314 293.137 101.553C293.137 101.661 292.712 101.869 291.932 101.846C290.921 101.804 289.957 101.407 289.208 100.727C288.494 100.07 288.06 99.1636 287.996 98.1953C288.004 97.4698 288.22 97.053 288.336 97.0684Z" fill="#263238"/>
<path d="M302.715 78.2047C302.43 78.5752 301.225 78.251 299.798 78.2896C298.37 78.3282 297.173 78.6369 296.88 78.2896C296.749 78.1121 296.926 77.7416 297.436 77.3788C298.136 76.9241 298.955 76.6852 299.79 76.6919C300.62 76.6635 301.44 76.8839 302.144 77.3248C302.715 77.6567 302.862 78.0194 302.715 78.2047Z" fill="#263238"/>
<path d="M281.744 87.3818C281.726 87.7717 281.862 88.1531 282.124 88.4425C282.386 88.7318 282.752 88.9056 283.141 88.9255C283.329 88.9424 283.517 88.922 283.697 88.8654C283.876 88.8088 284.042 88.7172 284.186 88.5959C284.329 88.4745 284.447 88.3259 284.533 88.1586C284.619 87.9912 284.671 87.8086 284.685 87.6211C284.704 87.2313 284.568 86.8499 284.306 86.5605C284.044 86.2711 283.678 86.0974 283.288 86.0774C283.101 86.0595 282.912 86.0791 282.732 86.1353C282.552 86.1915 282.385 86.283 282.242 86.4046C282.098 86.5261 281.98 86.6752 281.894 86.843C281.809 87.0108 281.758 87.194 281.744 87.3818Z" fill="#263238"/>
<path d="M281.289 83.6231C281.467 83.816 282.601 83.0056 284.191 83.0365C285.781 83.0673 286.931 83.8855 287.109 83.6925C287.286 83.4996 287.016 83.2603 286.515 82.9207C285.84 82.4324 285.032 82.163 284.199 82.1489C283.372 82.1287 282.56 82.3749 281.884 82.8512C281.366 83.1908 281.197 83.5304 281.289 83.6231Z" fill="#263238"/>
<path d="M280.371 80.2037C280.679 80.5742 281.914 80.2037 283.388 80.2037C284.863 80.2037 286.113 80.497 286.406 80.1188C286.53 79.9413 286.345 79.5785 285.804 79.2234C285.063 78.7897 284.216 78.5706 283.358 78.5905C282.504 78.5841 281.667 78.8196 280.942 79.2698C280.417 79.6557 280.239 80.0262 280.371 80.2037Z" fill="#263238"/>
<path d="M271.147 92.121C271.193 91.2565 270.313 89.188 269.472 89.0336C267.234 88.5628 263.143 88.5165 262.796 94.259C262.31 102.101 270.283 100.966 270.313 100.742C270.344 100.519 270.993 95.0771 271.147 92.121Z" fill="#936760"/>
<path d="M268.33 97.7168C268.292 97.7168 268.184 97.8017 267.944 97.8943C267.612 98.0118 267.248 97.998 266.925 97.8557C266.115 97.5007 265.497 96.1346 265.544 94.7221C265.565 94.0471 265.737 93.3854 266.045 92.7848C266.132 92.5431 266.278 92.3269 266.469 92.1558C266.661 91.9846 266.892 91.8639 267.142 91.8045C267.3 91.7736 267.463 91.7992 267.604 91.8768C267.746 91.9544 267.855 92.0791 267.913 92.229C268.006 92.4529 267.952 92.6072 267.991 92.6227C268.029 92.6381 268.168 92.4992 268.122 92.175C268.092 91.9778 267.993 91.7975 267.844 91.6656C267.74 91.5726 267.617 91.5026 267.484 91.46C267.351 91.4175 267.211 91.4034 267.072 91.4186C266.745 91.4611 266.435 91.5871 266.172 91.7845C265.908 91.9819 265.7 92.244 265.567 92.5455C265.194 93.2039 264.984 93.9425 264.957 94.6989C264.911 96.2889 265.629 97.7863 266.748 98.2108C266.954 98.2848 267.174 98.3114 267.392 98.2886C267.61 98.2659 267.82 98.1945 268.006 98.0796C268.299 97.9175 268.353 97.7323 268.33 97.7168Z" fill="#6F4C47"/>
<path d="M269.148 89.0259L271.147 91.0944C279.753 82.8589 296.579 62.2276 295.637 63.4548C291.715 61.9902 287.488 61.5312 283.342 62.1196C276.936 63.2078 264.818 66.411 264.988 73.9673C265.157 81.5236 269.148 89.0259 269.148 89.0259Z" fill="#263238"/>
<path d="M269.333 108.569C269.333 108.569 269.156 108.839 268.685 109.14C268.001 109.564 267.231 109.828 266.431 109.912C265.231 110.045 264.019 109.799 262.965 109.21C261.683 108.433 260.748 107.192 260.356 105.745C259.964 104.298 260.144 102.755 260.858 101.437C261.475 100.397 262.4 99.574 263.506 99.083C264.232 98.753 265.023 98.5895 265.821 98.6045C266.116 98.5868 266.41 98.6425 266.678 98.7666C265.648 98.8196 264.638 99.0657 263.699 99.4921C262.727 99.9988 261.923 100.776 261.383 101.73C260.789 102.917 260.652 104.282 261 105.563C261.347 106.844 262.154 107.953 263.266 108.677C264.213 109.234 265.303 109.503 266.4 109.449C267.425 109.347 268.421 109.048 269.333 108.569Z" fill="#E0E0E0"/>
<path d="M257.748 87.2969C257.775 87.1417 257.817 86.9893 257.872 86.8415C258.014 86.4155 258.192 86.0024 258.404 85.6066C259.216 84.1525 260.335 82.8934 261.684 81.9172C263.686 80.4882 265.919 79.4127 268.284 78.7372C270.908 77.8882 273.872 77.1936 276.774 75.974C279.505 74.8308 282.095 73.3752 284.492 71.6363C286.457 70.2097 288.289 68.608 289.965 66.8509C291.089 65.6611 292.146 64.4088 293.129 63.0998L293.901 62.0115C293.996 61.8775 294.105 61.7534 294.225 61.641C294.17 61.7873 294.095 61.925 294.001 62.0501C293.832 62.3125 293.6 62.6984 293.229 63.1769C292.294 64.5352 291.262 65.8249 290.142 67.0361C288.483 68.8353 286.656 70.4714 284.685 71.9219C282.265 73.7003 279.64 75.1825 276.867 76.3368C274.087 77.4018 271.253 78.3191 268.376 79.0846C266.041 79.7312 263.829 80.7615 261.831 82.1333C260.496 83.0743 259.369 84.2803 258.52 85.6761C257.949 86.6872 257.794 87.3124 257.748 87.2969Z" fill="#455A64"/>
<path d="M260.033 88.532C260.013 87.9454 260.118 87.3613 260.341 86.8185C260.931 85.318 261.958 84.0297 263.29 83.1214C264.926 81.9019 267.265 81.1455 269.835 80.5589C272.634 80.0005 275.362 79.1333 277.97 77.9732C280.564 76.7855 283.001 75.2819 285.225 73.4965C287.038 72.0341 288.703 70.3977 290.196 68.6108C291.199 67.3992 292.124 66.1257 292.967 64.7979L293.631 63.7019C293.703 63.57 293.788 63.4459 293.885 63.3314C293.845 63.4766 293.783 63.6146 293.7 63.7405C293.546 64.0415 293.345 64.4197 293.098 64.8828C292.301 66.2497 291.403 67.5551 290.412 68.7883C287.119 72.8828 282.917 76.1542 278.14 78.3437C275.508 79.5197 272.75 80.3899 269.92 80.9371C267.35 81.5082 265.065 82.2183 263.452 83.3761C262.146 84.2393 261.116 85.4615 260.488 86.8957C260.286 87.4258 260.133 87.9736 260.033 88.532Z" fill="#455A64"/>
<path d="M219.419 152.255C218.979 152.093 218.4 145.849 218.4 145.849C218.4 145.849 212.156 140.855 211.307 138.825C210.457 136.795 210.581 131.956 210.581 131.956L220.808 125.009C220.808 125.009 226.851 130.412 228.434 132.542C229.321 133.731 229.977 137.011 230.44 139.666C230.811 141.924 230.896 144.218 230.695 146.497L230.548 148.257C230.548 148.257 226.435 154.864 219.419 152.255Z" fill="#936760"/>
<path d="M211.777 140.052C211.042 139.399 210.344 138.706 209.685 137.976C208.358 136.54 206.884 135.197 208.142 133.677C208.331 133.425 208.571 133.217 208.846 133.065C209.122 132.914 209.426 132.822 209.739 132.797C209.739 132.797 208.968 131.462 209.639 130.62C209.828 130.372 210.074 130.172 210.356 130.038C210.638 129.904 210.948 129.839 211.26 129.848C211.26 129.848 210.264 127.934 211.183 126.645C211.533 126.175 212.007 125.811 212.553 125.596C213.098 125.38 213.693 125.321 214.27 125.426C214.27 125.426 210.125 116.982 209.878 116.55C208.952 114.952 209.037 113.208 210.89 113.015C211.569 112.945 212.155 113.478 213.915 116.102C215.675 118.726 218.623 123.164 218.623 123.164C218.623 123.164 221.842 125.889 223.455 127.417C225.068 128.945 228.441 132.527 229.005 133.592C230.448 136.363 230.139 140.824 230.139 140.824L218.407 145.849C218.407 145.849 212.534 140.724 211.777 140.052Z" fill="#936760"/>
<path d="M210.095 133.09C210.581 133.377 211.045 133.699 211.484 134.055L212.958 135.151C213.256 135.366 213.535 135.606 213.792 135.869C214.092 136.16 214.287 136.543 214.347 136.957C214.386 137.171 214.366 137.392 214.29 137.595C214.214 137.799 214.085 137.978 213.915 138.115C213.587 138.342 213.183 138.434 212.788 138.37C212.458 138.335 212.133 138.268 211.816 138.169C211.515 138.084 211.245 137.999 210.99 137.914C210.496 137.752 210.095 137.605 209.825 137.49C209.554 137.374 209.415 137.304 209.423 137.281C209.431 137.258 210.048 137.459 211.044 137.737C211.622 137.914 212.213 138.046 212.812 138.13C213.141 138.17 213.474 138.093 213.753 137.914C213.884 137.802 213.983 137.657 214.042 137.495C214.1 137.333 214.115 137.158 214.085 136.988C214.027 136.631 213.856 136.301 213.599 136.046C213.362 135.791 213.104 135.556 212.827 135.344L211.384 134.194C210.923 133.864 210.491 133.495 210.095 133.09Z" fill="#6F4C47"/>
<path d="M220.306 130.59C219.973 129.999 219.786 129.337 219.758 128.66C219.641 127.994 219.681 127.309 219.874 126.661C219.959 126.661 219.874 127.556 220.021 128.637C220.167 129.717 220.383 130.566 220.306 130.59Z" fill="#6F4C47"/>
<path d="M225.987 131.446C224.494 130.778 222.841 130.556 221.225 130.805C219.615 131.054 218.053 131.549 216.594 132.272C215.42 132.828 214.139 133.646 213.977 134.935C213.815 136.224 215.027 137.459 216.339 137.713C217.674 137.862 219.023 137.592 220.198 136.942C221.364 136.276 222.609 135.757 223.903 135.398" fill="#936760"/>
<path d="M223.918 135.437C223.918 135.437 223.571 135.522 222.961 135.753C222.116 136.099 221.289 136.488 220.483 136.919C219.916 137.211 219.325 137.454 218.716 137.644C218.007 137.877 217.257 137.953 216.516 137.868C215.676 137.759 214.912 137.327 214.386 136.664C214.099 136.316 213.912 135.897 213.845 135.452C213.796 134.986 213.888 134.515 214.108 134.101C214.586 133.346 215.276 132.747 216.091 132.38C216.813 132.018 217.555 131.699 218.314 131.423C219.602 130.941 220.961 130.68 222.336 130.651C223.261 130.629 224.183 130.767 225.06 131.06C225.3 131.14 225.535 131.235 225.763 131.346C225.842 131.382 225.917 131.426 225.986 131.477C225.986 131.477 225.655 131.338 225.029 131.161C224.153 130.916 223.245 130.809 222.336 130.844C220.986 130.906 219.656 131.191 218.399 131.685C217.652 131.96 216.923 132.28 216.215 132.643C215.448 132.989 214.799 133.553 214.347 134.263C214.147 134.622 214.065 135.036 214.116 135.444C214.171 135.843 214.334 136.219 214.586 136.533C215.074 137.143 215.774 137.545 216.547 137.66C217.255 137.742 217.973 137.676 218.654 137.467C219.256 137.286 219.842 137.056 220.406 136.78C221.224 136.363 222.067 135.997 222.93 135.684C223.167 135.606 223.41 135.544 223.655 135.498C223.74 135.466 223.828 135.445 223.918 135.437Z" fill="#6F4C47"/>
<path d="M210.241 133.198C212.194 134.657 214.1 136.363 215.86 138.007C216.342 138.535 216.954 138.926 217.635 139.142C218.183 139.257 219.133 138.37 219.573 137.984L213.267 131.361" fill="#936760"/>
<path d="M213.267 131.361C213.459 131.498 213.635 131.656 213.792 131.832L215.15 133.206C216.3 134.379 217.89 136.023 219.673 137.891L219.766 137.991L219.658 138.084C219.321 138.386 218.968 138.67 218.6 138.933C218.442 139.038 218.274 139.129 218.099 139.203C218.005 139.242 217.906 139.265 217.805 139.273C217.703 139.294 217.598 139.294 217.496 139.273C217.147 139.17 216.82 139.002 216.532 138.779C215.968 138.347 215.521 137.876 215.05 137.459C214.124 136.61 213.29 135.853 212.58 135.228C211.87 134.603 211.275 134.109 210.866 133.77C210.647 133.603 210.438 133.423 210.241 133.229C210.486 133.359 210.716 133.514 210.928 133.692C211.36 134.001 211.97 134.464 212.696 135.082C213.421 135.699 214.286 136.432 215.212 137.281C215.683 137.69 216.154 138.169 216.686 138.57C216.949 138.774 217.247 138.925 217.566 139.018C217.724 139.036 217.884 139.021 218.036 138.973C218.187 138.925 218.327 138.846 218.446 138.74C218.808 138.484 219.156 138.208 219.488 137.914V138.053C217.705 136.178 216.146 134.51 215.027 133.306L213.722 131.879C213.56 131.715 213.408 131.543 213.267 131.361Z" fill="#6F4C47"/>
<path d="M211.492 129.355L217.852 136.517C218.273 137.052 218.782 137.512 219.357 137.876C219.645 138.056 219.974 138.161 220.314 138.183C220.653 138.205 220.993 138.141 221.302 137.999C221.686 137.733 221.971 137.347 222.111 136.901C222.25 136.455 222.237 135.975 222.074 135.537C221.73 134.664 221.204 133.874 220.53 133.222C218.611 131.045 216.864 128.722 215.305 126.275" fill="#936760"/>
<path d="M215.32 126.252C215.32 126.252 215.389 126.321 215.497 126.476L215.96 127.147C216.369 127.726 216.956 128.559 217.712 129.571C218.469 130.582 219.418 131.747 220.514 133.005C221.134 133.635 221.655 134.356 222.058 135.143C222.259 135.588 222.337 136.079 222.282 136.563C222.242 137.077 222.01 137.556 221.633 137.906C221.436 138.074 221.205 138.196 220.955 138.264C220.706 138.332 220.445 138.344 220.19 138.3C219.708 138.229 219.253 138.032 218.87 137.729C218.21 137.144 217.598 136.507 217.041 135.823L214.116 132.48C213.305 131.547 212.649 130.775 212.163 130.211L211.638 129.563C211.572 129.493 211.515 129.415 211.468 129.331C211.468 129.331 211.545 129.393 211.677 129.524L212.24 130.119L214.255 132.334L217.226 135.637C217.778 136.304 218.382 136.926 219.032 137.497C219.379 137.772 219.791 137.95 220.229 138.015C220.446 138.051 220.669 138.04 220.882 137.982C221.095 137.925 221.293 137.823 221.464 137.683C221.789 137.375 221.987 136.956 222.019 136.509C222.07 136.072 222 135.629 221.819 135.228C221.412 134.459 220.892 133.757 220.275 133.144C219.179 131.878 218.253 130.682 217.512 129.656C216.771 128.629 216.2 127.78 215.821 127.178C215.636 126.877 215.49 126.645 215.397 126.483C215.363 126.409 215.337 126.331 215.32 126.252Z" fill="#6F4C47"/>
<path d="M225.022 142.684C224.785 142.809 224.518 142.865 224.25 142.846C223.624 142.881 222.998 142.77 222.421 142.522C221.832 142.285 221.305 141.919 220.877 141.449C220.691 141.266 220.551 141.041 220.468 140.793C221.022 141.439 221.72 141.947 222.505 142.275C223.291 142.604 224.142 142.744 224.991 142.684H225.022Z" fill="#6F4C47"/>
<path d="M305.903 122.493L303.68 150.542C303.643 151.022 303.418 151.467 303.053 151.782C302.689 152.097 302.216 152.256 301.735 152.224L286.106 151.174C285.861 151.16 285.622 151.096 285.403 150.988C285.184 150.879 284.989 150.727 284.83 150.541C284.671 150.355 284.55 150.139 284.477 149.906C284.403 149.673 284.377 149.427 284.4 149.183L286.955 121.158C286.996 120.682 287.222 120.241 287.584 119.93C287.946 119.618 288.415 119.46 288.892 119.49L304.198 120.486C304.443 120.503 304.682 120.568 304.901 120.678C305.12 120.789 305.315 120.942 305.474 121.129C305.633 121.316 305.753 121.533 305.827 121.768C305.901 122.002 305.927 122.248 305.903 122.493Z" fill="#455A64"/>
<path d="M328.279 158.198C328.279 158.198 332.948 189.751 332.763 193.988C332.578 198.226 327.785 207.634 321.332 208.553C314.879 209.471 308.797 203.574 308.612 195.833C308.427 188.091 307.47 163.609 307.47 163.609L312.286 160.953L328.279 158.198Z" fill="#936760"/>
<path d="M301.689 132.125C301.689 132.125 306.52 135.097 307.948 135.876C309.376 136.656 309.191 142.414 309.191 142.414L317.326 161.324L307.524 164.836C307.524 164.836 304.027 158.221 303.024 157.388C302.337 156.848 301.55 156.449 300.708 156.214C300.708 156.214 300.207 158.051 298.702 157.218C297.508 156.43 296.436 155.47 295.522 154.37C295.522 154.37 294.179 155.211 293.677 154.208C293.175 153.204 292.342 151.028 292.342 151.028C292.342 151.028 295.182 147.346 296.355 147.346C297.528 147.346 303.549 147.678 303.549 147.678C303.549 147.678 303.217 147.176 301.542 146.512C299.867 145.849 289.91 142.908 289.44 142.73C288.737 142.46 287.95 140.631 290.127 140.461C292.303 140.291 304.552 142.483 304.552 142.483C304.552 142.483 305.224 139.319 304.722 138.624C304.22 137.93 299.844 135.135 301.689 132.125Z" fill="#936760"/>
<path d="M295.483 154.262C295.398 153.806 295.411 153.338 295.522 152.888C295.627 152.364 295.897 151.888 296.293 151.529C296.815 151.152 297.449 150.961 298.092 150.989C299.192 150.918 300.296 150.957 301.388 151.105C301.844 151.134 302.293 151.239 302.715 151.414C302.715 151.529 300.647 151.182 298.084 151.352C297.517 151.324 296.955 151.475 296.479 151.784C296.133 152.093 295.888 152.499 295.776 152.95C295.702 153.392 295.604 153.83 295.483 154.262Z" fill="#6F4C47"/>
<path d="M297.428 154.825C298.069 155.087 298.695 155.384 299.304 155.713C299.963 155.929 300.607 156.187 301.233 156.485C300.513 156.533 299.794 156.378 299.157 156.037C298.474 155.812 297.873 155.39 297.428 154.825Z" fill="#6F4C47"/>
<path d="M303.974 142.414C304.625 142.512 305.229 142.811 305.702 143.269C306.175 143.727 306.494 144.321 306.613 144.969C306.513 144.969 306.181 144.197 305.448 143.533C304.715 142.869 303.935 142.514 303.974 142.414Z" fill="#6F4C47"/>
<path d="M220.453 311.269C220.345 311.269 224.559 293.517 229.869 271.689C235.179 249.862 239.563 232.217 239.672 232.217C239.78 232.217 235.565 249.97 230.255 271.805C224.945 293.64 220.561 311.292 220.453 311.269Z" fill="#455A64"/>
<path d="M335.958 337.033C335.958 337.141 262.325 337.234 171.51 337.234C80.6957 337.234 7.03906 337.141 7.03906 337.033C7.03906 336.925 80.6648 336.833 171.51 336.833C262.356 336.833 335.958 336.918 335.958 337.033Z" fill="#263238"/>
<path d="M297.621 58.6926L299.89 50.5034C296.886 45.6362 295.812 39.8212 296.878 34.2019C297.944 28.5825 301.073 23.5651 305.651 20.1363C310.229 16.7075 315.924 15.1152 321.617 15.6725C327.309 16.2299 332.587 18.8965 336.413 23.1481C340.239 27.3998 342.336 32.9288 342.292 38.6483C342.248 44.3678 340.066 49.8638 336.175 54.056C332.284 58.2481 326.965 60.8331 321.265 61.3026C315.564 61.7721 309.895 60.0922 305.37 56.5932L297.621 58.6926Z" fill="white"/>
<path d="M297.621 58.6925L298.138 58.5381L299.628 58.1214L305.355 56.5159L305.301 56.6626C305.286 56.6456 305.277 56.6236 305.277 56.6008C305.277 56.578 305.286 56.5561 305.301 56.5391C305.318 56.5281 305.338 56.5223 305.359 56.5223C305.379 56.5223 305.4 56.5281 305.417 56.5391C308.459 58.8741 312.044 60.3985 315.837 60.9694C318.264 61.3424 320.736 61.3111 323.154 60.8768C327.656 60.0951 331.818 57.9752 335.097 54.7935C338.377 51.6118 340.621 47.5158 341.539 43.0396C342.208 39.621 342.092 36.0951 341.199 32.7278C340.285 29.2111 338.53 25.969 336.086 23.2802C333.641 20.5913 330.581 18.5361 327.167 17.2911C323.661 16.0038 319.891 15.6017 316.193 16.1202C312.494 16.6387 308.98 18.062 305.963 20.2637C302.946 22.4654 300.519 25.3776 298.897 28.7421C297.275 32.1065 296.508 35.8192 296.664 39.5509C296.826 43.3974 297.962 47.1397 299.968 50.4261C299.975 50.4513 299.975 50.4782 299.968 50.5033C299.196 53.1353 298.632 55.1343 298.231 56.5468C298.038 57.2337 297.884 57.7509 297.776 58.0905C297.668 58.4301 297.614 58.6385 297.614 58.6385C297.614 58.6385 297.652 58.4687 297.737 58.1214C297.822 57.774 297.969 57.2415 298.154 56.5777C298.524 55.1652 299.08 53.1044 299.79 50.403V50.4801C297.362 46.5757 296.168 42.0293 296.365 37.4354C296.562 32.8415 298.14 28.4139 300.894 24.7316C304.425 20.0164 309.626 16.8301 315.431 15.8256C321.235 14.8211 327.204 16.0744 332.115 19.3287C333.645 20.3662 335.049 21.5784 336.298 22.9409C337.557 24.3205 338.653 25.8408 339.563 27.4716C342.108 32.2466 342.926 37.7542 341.878 43.0628C340.947 47.6073 338.664 51.764 335.327 54.9872C331.991 58.2105 327.758 60.3496 323.185 61.1238C320.733 61.5568 318.226 61.5776 315.767 61.1856C311.937 60.5731 308.325 58.9983 305.27 56.6086L305.401 56.4851C305.41 56.493 305.417 56.5026 305.421 56.5132C305.426 56.5238 305.428 56.5352 305.428 56.5468C305.428 56.5584 305.426 56.5698 305.421 56.5804C305.417 56.591 305.41 56.6006 305.401 56.6086L299.574 58.1522L298.084 58.5536L297.621 58.6925Z" fill="#263238"/>
<path d="M309.129 39.0956L311.8 36.4174L316.956 41.0021L327.075 31.2615L329.56 33.9398L316.578 46.158L309.129 39.0956Z" fill="#FCE28C"/>
</svg>
