<svg width="156" height="34" viewBox="0 0 156 34" fill="none" xmlns="http://www.w3.org/2000/svg">
<path d="M24.0611 26.2241V8.13844H29.7254C29.8929 8.13844 30.2027 8.14263 30.6548 8.151C31.1153 8.15938 31.5549 8.19287 31.9735 8.25148C33.3886 8.42731 34.5776 8.93388 35.5404 9.77118C36.5117 10.6085 37.2444 11.6718 37.7384 12.9613C38.2324 14.2424 38.4794 15.649 38.4794 17.1813C38.4794 18.7219 38.2324 20.137 37.7384 21.4264C37.2444 22.7075 36.5117 23.7666 35.5404 24.6039C34.5776 25.4329 33.3886 25.9353 31.9735 26.1111C31.5549 26.1697 31.1153 26.2032 30.6548 26.2116C30.2027 26.2199 29.8929 26.2241 29.7254 26.2241H24.0611ZM26.7488 23.7248H29.7254C30.0101 23.7248 30.3492 23.7164 30.7427 23.6997C31.1362 23.6829 31.4837 23.6494 31.7852 23.5992C32.7062 23.4234 33.4514 23.0256 34.0207 22.406C34.5985 21.7781 35.0213 21.0077 35.2893 20.0951C35.5572 19.1824 35.6912 18.2112 35.6912 17.1813C35.6912 16.1179 35.553 15.1341 35.2767 14.2298C35.0004 13.3171 34.5734 12.5552 33.9956 11.944C33.4263 11.3244 32.6894 10.9308 31.7852 10.7634C31.4837 10.7048 31.1321 10.6713 30.7302 10.6629C30.3366 10.6462 30.0017 10.6378 29.7254 10.6378H26.7488V23.7248ZM47.42 26.6009C46.0719 26.6009 44.8871 26.3079 43.8656 25.7217C42.8525 25.1273 42.0612 24.3025 41.4919 23.2475C40.9309 22.1841 40.6504 20.9533 40.6504 19.555C40.6504 18.073 40.9267 16.7878 41.4793 15.6993C42.0403 14.6108 42.819 13.7693 43.8154 13.1748C44.8118 12.5803 45.9714 12.2831 47.2944 12.2831C48.6759 12.2831 49.8523 12.6054 50.8236 13.2502C51.7949 13.8865 52.5191 14.795 52.9964 15.9756C53.482 17.1562 53.6746 18.5586 53.5741 20.183H50.9492V19.2285C50.9324 17.6544 50.631 16.4905 50.0449 15.7369C49.4672 14.9834 48.5838 14.6066 47.3948 14.6066C46.0803 14.6066 45.0923 15.021 44.4308 15.85C43.7693 16.6789 43.4386 17.8762 43.4386 19.442C43.4386 20.9324 43.7693 22.0879 44.4308 22.9084C45.0923 23.7206 46.0468 24.1267 47.2944 24.1267C48.1149 24.1267 48.8224 23.9425 49.4169 23.5741C50.0198 23.1973 50.4887 22.6614 50.8236 21.9665L53.3983 22.7828C52.8708 23.9969 52.0712 24.9389 50.9994 25.6087C49.9277 26.2702 48.7345 26.6009 47.42 26.6009ZM42.5846 20.183V18.1358H52.2679V20.183H42.5846ZM61.579 26.5883C59.9296 26.5883 58.5857 26.2241 57.5474 25.4957C56.5092 24.7672 55.8728 23.7415 55.6384 22.4186L58.3261 22.0041C58.4936 22.7075 58.8787 23.2643 59.4816 23.6745C60.0928 24.0764 60.8506 24.2774 61.7549 24.2774C62.5754 24.2774 63.216 24.1099 63.6765 23.775C64.1454 23.4401 64.3798 22.9796 64.3798 22.3935C64.3798 22.0502 64.2961 21.7739 64.1286 21.5645C63.9695 21.3468 63.6304 21.1417 63.1113 20.9491C62.5922 20.7566 61.8009 20.5179 60.7375 20.2332C59.5737 19.9318 58.6485 19.6095 57.9619 19.2662C57.2837 18.9145 56.798 18.5084 56.505 18.0479C56.2203 17.579 56.078 17.0138 56.078 16.3524C56.078 15.5318 56.2957 14.8159 56.7311 14.2047C57.1665 13.5935 57.7777 13.1204 58.5648 12.7855C59.3602 12.4505 60.2896 12.2831 61.353 12.2831C62.3912 12.2831 63.3164 12.4464 64.1286 12.7729C64.9408 13.0994 65.5981 13.5641 66.1005 14.167C66.6028 14.7615 66.9043 15.4606 67.0047 16.2644L64.317 16.7543C64.2249 16.1012 63.9193 15.5862 63.4002 15.2094C62.881 14.8327 62.207 14.6275 61.3781 14.594C60.5826 14.5605 59.9379 14.6945 59.4439 14.9959C58.9499 15.289 58.7029 15.6951 58.7029 16.2142C58.7029 16.5156 58.795 16.771 58.9792 16.9803C59.1718 17.1897 59.5402 17.3906 60.0845 17.5832C60.6287 17.7758 61.4325 18.006 62.4959 18.274C63.6346 18.567 64.5389 18.8936 65.2087 19.2536C65.8786 19.6053 66.3558 20.0281 66.6405 20.5221C66.9336 21.0077 67.0801 21.598 67.0801 22.293C67.0801 23.6327 66.5903 24.6835 65.6106 25.4454C64.6394 26.2074 63.2955 26.5883 61.579 26.5883ZM69.8465 26.2241L69.8591 8.13844H72.5217V19.1908L77.8469 12.6599H81.1877L75.5611 19.442L81.7655 26.2241H78.1986L72.5217 19.6932V26.2241H69.8465ZM99.2838 26.2241L99.2964 17.7716C99.2964 16.7919 99.0452 16.03 98.5428 15.4858C98.0404 14.9331 97.379 14.6568 96.5584 14.6568C96.056 14.6568 95.5955 14.774 95.1769 15.0085C94.7666 15.2346 94.4317 15.5779 94.1721 16.0384C93.9209 16.4905 93.7953 17.0599 93.7953 17.7465L92.5268 17.1059C92.5101 16.1514 92.711 15.3141 93.1297 14.594C93.5567 13.8739 94.1344 13.3171 94.8629 12.9236C95.5913 12.5217 96.4077 12.3208 97.312 12.3208C98.7773 12.3208 99.9118 12.7603 100.716 13.6395C101.519 14.5187 101.921 15.6867 101.921 17.1436L101.909 26.2241H99.2838ZM83.0193 26.2241V12.6599H85.3553V16.5784H85.6568V26.2241H83.0193ZM91.1578 26.2241L91.1704 17.8218C91.1704 16.8338 90.9192 16.0593 90.4168 15.4983C89.9228 14.9373 89.2572 14.6568 88.4199 14.6568C87.5909 14.6568 86.9211 14.9415 86.4103 15.5109C85.908 16.0802 85.6568 16.8254 85.6568 17.7465L84.4008 16.9427C84.4008 16.0551 84.6143 15.2639 85.0414 14.5689C85.4684 13.8739 86.0461 13.3255 86.7746 12.9236C87.503 12.5217 88.3278 12.3208 89.2488 12.3208C90.2117 12.3208 91.0322 12.5259 91.7104 12.9362C92.3887 13.3381 92.9036 13.9033 93.2553 14.6317C93.6153 15.3602 93.7953 16.2058 93.7953 17.1687L93.7828 26.2241H91.1578ZM109.013 26.6009C108.009 26.6009 107.167 26.4167 106.489 26.0483C105.811 25.6715 105.296 25.1775 104.944 24.5663C104.601 23.9467 104.429 23.2685 104.429 22.5316C104.429 21.845 104.551 21.2422 104.793 20.7231C105.036 20.2039 105.396 19.7644 105.873 19.4043C106.351 19.0359 106.937 18.7387 107.632 18.5126C108.235 18.3368 108.917 18.1819 109.679 18.0479C110.441 17.9139 111.241 17.7883 112.078 17.6711C112.923 17.5539 113.761 17.4367 114.59 17.3194L113.635 17.8469C113.652 16.7836 113.426 15.9965 112.957 15.4858C112.496 14.9666 111.701 14.7071 110.571 14.7071C109.859 14.7071 109.206 14.8745 108.611 15.2094C108.017 15.536 107.602 16.0802 107.368 16.8422L104.919 16.0886C105.254 14.9248 105.89 13.9995 106.828 13.313C107.774 12.6264 109.03 12.2831 110.596 12.2831C111.81 12.2831 112.865 12.4924 113.761 12.9111C114.665 13.3213 115.327 13.9744 115.745 14.8703C115.963 15.3141 116.097 15.783 116.147 16.277C116.197 16.771 116.222 17.3027 116.222 17.8721V26.2241H113.899V23.1219L114.351 23.5238C113.79 24.5621 113.074 25.3366 112.203 25.8473C111.341 26.3497 110.278 26.6009 109.013 26.6009ZM109.478 24.4532C110.223 24.4532 110.864 24.3235 111.4 24.0639C111.935 23.796 112.367 23.4568 112.693 23.0466C113.02 22.6363 113.233 22.2093 113.334 21.7655C113.476 21.3636 113.556 20.9115 113.572 20.4091C113.598 19.9067 113.61 19.5048 113.61 19.2034L114.464 19.5173C113.635 19.6429 112.882 19.756 112.203 19.8565C111.525 19.9569 110.91 20.0574 110.357 20.1579C109.813 20.25 109.327 20.363 108.9 20.497C108.54 20.6226 108.218 20.7733 107.933 20.9491C107.657 21.125 107.435 21.3385 107.268 21.5897C107.108 21.8409 107.029 22.1465 107.029 22.5065C107.029 22.8582 107.117 23.1847 107.293 23.4862C107.468 23.7792 107.736 24.0136 108.096 24.1895C108.457 24.3653 108.917 24.4532 109.478 24.4532ZM120.557 32.2527L123.182 25.1063L123.22 27.2163L117.304 12.6599H120.042L124.463 23.9006H123.659L127.879 12.6599H130.542L123.056 32.2527H120.557ZM141.277 26.2241C140.423 26.3916 139.586 26.4628 138.765 26.4376C137.944 26.4125 137.212 26.2534 136.567 25.9604C135.922 25.6673 135.437 25.2068 135.11 24.5788C134.817 24.0178 134.658 23.4485 134.633 22.8707C134.616 22.2846 134.608 21.6232 134.608 20.8863V8.89201H137.245V20.7607C137.245 21.305 137.249 21.7781 137.258 22.18C137.275 22.5819 137.363 22.921 137.522 23.1973C137.823 23.7164 138.3 24.0136 138.953 24.089C139.615 24.156 140.389 24.1267 141.277 24.0011V26.2241ZM132.008 14.7699V12.6599H141.277V14.7699H132.008ZM149.539 26.6009C148.191 26.6009 147.007 26.3079 145.985 25.7217C144.972 25.1273 144.181 24.3025 143.611 23.2475C143.05 22.1841 142.77 20.9533 142.77 19.555C142.77 18.073 143.046 16.7878 143.599 15.6993C144.16 14.6108 144.939 13.7693 145.935 13.1748C146.931 12.5803 148.091 12.2831 149.414 12.2831C150.795 12.2831 151.972 12.6054 152.943 13.2502C153.914 13.8865 154.639 14.795 155.116 15.9756C155.602 17.1562 155.794 18.5586 155.694 20.183H153.069V19.2285C153.052 17.6544 152.751 16.4905 152.164 15.7369C151.587 14.9834 150.703 14.6066 149.514 14.6066C148.2 14.6066 147.212 15.021 146.55 15.85C145.889 16.6789 145.558 17.8762 145.558 19.442C145.558 20.9324 145.889 22.0879 146.55 22.9084C147.212 23.7206 148.166 24.1267 149.414 24.1267C150.234 24.1267 150.942 23.9425 151.536 23.5741C152.139 23.1973 152.608 22.6614 152.943 21.9665L155.518 22.7828C154.99 23.9969 154.191 24.9389 153.119 25.6087C152.047 26.2702 150.854 26.6009 149.539 26.6009ZM144.704 20.183V18.1358H154.387V20.183H144.704Z" fill="#101828"/>
<path d="M1.72765 0.159313L0.408528 0.137315L0.25722 20.4276C0.235592 23.3462 1.0286 26.1915 2.50589 28.496C3.98315 30.8005 6.05687 32.427 8.38621 33.1083C8.43558 33.1225 8.47945 33.1366 8.51513 33.1439C8.54256 33.1511 8.56999 33.1583 8.59745 33.1621L8.59742 33.1654L8.60017 33.1655C8.60295 33.1622 8.60292 33.1655 8.60292 33.1655L8.60842 33.1656C8.61523 33.1699 8.62271 33.1723 8.63035 33.1727C8.63141 33.174 8.63273 33.1749 8.63415 33.1755C8.63557 33.1761 8.63706 33.1763 8.63857 33.1762C9.04828 33.2813 9.46249 33.3576 9.8792 33.4047C10.1483 33.4327 10.4231 33.4507 10.6979 33.4552C10.827 33.4574 10.9562 33.4595 11.0827 33.4516C12.2384 33.4052 13.3702 33.0474 14.397 32.4039C13.7114 32.0526 13.0459 31.645 12.4052 31.1839C10.1506 29.5738 8.22763 27.3542 6.78499 24.6969C6.55578 24.367 6.35577 24.0086 6.18829 23.6276C6.18557 23.6242 6.18557 23.6242 6.18559 23.6208C6.07831 23.3815 5.98465 23.1335 5.90528 22.8786C5.66356 22.1256 5.54355 21.3232 5.55185 20.5159L5.65499 6.68511L8.24926 6.72837C8.66309 6.73447 9.07506 6.80098 9.47637 6.92652L9.48462 6.92666C10.0576 7.10803 10.6018 7.40616 11.0942 7.80839C11.3557 8.02007 11.6005 8.26097 11.8254 8.52796C10.4111 6.05453 8.57433 3.98315 6.44236 2.4573C4.97378 1.40601 3.38418 0.631214 1.72765 0.159313Z" fill="#101828"/>
<path d="M8.2901 0.264808L1.7241 0.155263C3.37979 0.626885 4.96858 1.40144 6.4364 2.45254C8.56681 3.97791 10.4022 6.04862 11.8154 8.52127C12.3336 9.12497 12.7445 9.85212 13.0225 10.6572C13.3005 11.4623 13.4396 12.3279 13.4312 13.2L13.3517 23.8664C13.345 24.7049 13.0657 25.5043 12.5751 26.0888C12.0845 26.6733 11.4229 26.995 10.7358 26.9832C9.98054 26.9717 9.2356 26.7602 8.5524 26.3634C7.86921 25.9667 7.26406 25.394 6.77878 24.6851C8.22004 27.3414 10.1412 29.5602 12.3937 31.17C13.0339 31.6309 13.6989 32.0384 14.384 32.3896C15.6575 31.5931 16.7271 30.3867 17.4777 28.9004C18.2283 27.414 18.6313 25.704 18.6435 23.9547L18.723 13.2883C18.7445 10.4347 17.987 7.6491 16.5697 5.37103C15.1525 3.09297 13.1563 1.45204 10.8959 0.707105C10.8873 0.701834 10.8781 0.698296 10.8686 0.696596C10.0265 0.423311 9.16041 0.278256 8.2901 0.264808Z" fill="#101828"/>
<g style="mix-blend-mode:multiply" opacity="0.15">
<g style="mix-blend-mode:multiply" opacity="0.15">
<path d="M1.75499 0.163966L0.438111 0.137354C0.438111 0.137354 3.83012 0.481942 6.81155 6.46274C6.84678 6.53331 6.88202 6.60387 6.91723 6.67775L8.27527 6.7052C8.68839 6.71275 9.09974 6.78027 9.50053 6.90624L9.50876 6.90641C10.081 7.08847 10.6247 7.38621 11.1167 7.78707C11.378 7.99804 11.6227 8.23795 11.8477 8.50366C10.4325 6.04448 8.59609 3.98267 6.46575 2.46105C4.99794 1.41252 3.40969 0.638054 1.75499 0.163966Z" fill="black"/>
</g>
</g>
<g style="mix-blend-mode:multiply" opacity="0.15">
<g style="mix-blend-mode:multiply" opacity="0.15">
<path d="M5.87024 22.891C5.87024 22.891 5.90686 27.6728 9.85647 33.3887C10.1256 33.4175 10.4003 33.4364 10.6751 33.442C10.8042 33.4446 10.9333 33.4472 11.0598 33.4398C12.2152 33.3978 13.3463 33.0456 14.372 32.4085C13.6861 32.0561 13.0202 31.6477 12.379 31.1861C10.1227 29.5743 8.19707 27.3568 6.75113 24.7051C6.52152 24.3757 6.32107 24.018 6.1531 23.6379C6.15038 23.6345 6.15038 23.6345 6.1504 23.6312C6.0432 23.3924 5.94958 23.1451 5.87024 22.891Z" fill="black"/>
</g>
</g>
<g style="mix-blend-mode:multiply" opacity="0.3">
<g style="mix-blend-mode:multiply" opacity="0.3">
<path d="M8.56901 33.1825C8.57561 33.1861 8.58263 33.1886 8.58984 33.1898C8.58688 33.1863 8.58092 33.1862 8.57497 33.1827L8.56901 33.1825Z" fill="black"/>
</g>
</g>
<g style="mix-blend-mode:multiply" opacity="0.3">
<g style="mix-blend-mode:multiply" opacity="0.3">
<path d="M0.356745 1.73174L0.241413 20.4206C0.223548 23.3379 1.02595 26.1848 2.51673 28.4935C4.00748 30.8023 6.09797 32.4356 8.44462 33.125C8.49435 33.1394 8.53855 33.1537 8.57449 33.1611C8.60175 33.1703 8.62944 33.1776 8.65739 33.1829L8.66016 33.1829L8.65741 33.1795C8.60495 33.1584 8.51383 33.123 8.38127 33.0734C8.07586 32.9708 7.77533 32.8473 7.48122 32.7034C7.29083 32.6058 7.07544 32.5244 6.85484 32.3892C6.63424 32.2541 6.39431 32.1119 6.14062 31.956C5.89815 31.7769 5.6419 31.5874 5.36913 31.3842C5.1159 31.1546 4.83214 30.9378 4.56532 30.6677C4.2825 30.3938 4.01264 30.1008 3.75697 29.7902C3.6251 29.63 3.49048 29.4665 3.3531 29.3029C3.22965 29.1228 3.10067 28.9426 2.97171 28.759C2.90862 28.6673 2.83996 28.5788 2.77966 28.4838C2.72216 28.3821 2.66187 28.2837 2.60435 28.1853C2.48659 27.9819 2.36048 27.785 2.24831 27.5717C2.02005 27.1389 1.8112 26.6918 1.62272 26.2321C1.42841 25.7583 1.25673 25.2715 1.10858 24.7742C0.969211 24.2597 0.851395 23.7373 0.755648 23.2089C0.662085 22.6764 0.594243 22.1379 0.552468 21.5964L0.527277 20.7447C0.522568 20.6106 0.515278 20.4463 0.518729 20.3358L0.521354 19.9102C0.525596 18.7744 0.529838 17.6385 0.531208 16.5193C0.532579 15.4002 0.531059 14.3011 0.529332 13.2354C0.523088 11.1075 0.504925 9.11672 0.47945 7.41396C0.459531 5.70796 0.418461 4.28974 0.399694 3.29415C0.371517 2.29837 0.356745 1.73174 0.356745 1.73174Z" fill="black"/>
</g>
</g>
<g style="mix-blend-mode:overlay" opacity="0.6">
<g style="mix-blend-mode:overlay" opacity="0.6">
<path d="M5.43294 6.39639L5.42293 6.67425C5.40018 7.22656 5.39403 7.77585 5.37957 8.32833C5.3651 8.8808 5.35895 9.4301 5.35281 9.97939C5.34666 10.5287 5.33772 11.0813 5.33985 11.6341C5.34197 12.1869 5.33858 12.7362 5.34349 13.2858C5.35329 14.3881 5.37137 15.4907 5.40605 16.5936C5.44072 17.6965 5.48369 18.7995 5.56259 19.9033L5.64408 6.67871L8.25357 6.73138C8.66982 6.73898 9.08429 6.80694 9.48812 6.93385L9.49641 6.93402C9.18848 6.80067 8.87038 6.70557 8.54712 6.6502C8.21846 6.59667 7.90063 6.5802 7.57737 6.54688C7.3121 6.52477 7.04407 6.50261 6.77876 6.48721C6.4002 6.45612 6.02435 6.43178 5.64573 6.41074L5.43294 6.39639Z" fill="#101828"/>
</g>
</g>
<g style="mix-blend-mode:screen" opacity="0.4">
<g style="mix-blend-mode:screen" opacity="0.4">
<path d="M10.8591 0.679747C10.9499 0.725111 11.2305 0.85802 11.6569 1.0508C11.9126 1.20329 12.2289 1.35702 12.5696 1.58489C12.74 1.70218 12.9213 1.82638 13.1109 1.95745C13.3004 2.08852 13.4843 2.2563 13.6847 2.41103C13.8919 2.57707 14.0916 2.75659 14.2829 2.9488C14.3844 3.0446 14.4859 3.14376 14.5901 3.24296C14.6887 3.3521 14.7874 3.46124 14.8888 3.57044C14.9902 3.67963 15.0916 3.79552 15.1957 3.90812C15.2915 4.03394 15.3873 4.15976 15.4859 4.28565C15.5844 4.41152 15.683 4.5374 15.7815 4.66663C15.8745 4.80244 15.9674 4.9416 16.0604 5.08076C16.1533 5.21991 16.2518 5.35918 16.3392 5.50492C16.4266 5.65067 16.5112 5.8064 16.5985 5.95883C16.7788 6.25712 16.9258 6.58153 17.0838 6.90616C17.3942 7.56661 17.6559 8.2588 17.8657 8.97444C17.9711 9.33483 18.0516 9.70477 18.1459 10.0649C18.2126 10.4346 18.2821 10.8043 18.3405 11.1738C18.3741 11.5428 18.4243 11.8987 18.4524 12.2709C18.4667 12.6395 18.4891 13.0317 18.4953 13.37C18.5056 14.8367 18.5276 16.2033 18.5562 17.3757C18.5794 18.5481 18.623 19.5233 18.6436 20.2068C18.6643 20.8902 18.6895 21.2825 18.6895 21.2825L18.7387 13.2778C18.7565 10.4269 17.9917 7.64118 16.565 5.36006C15.1382 3.07894 13.1307 1.43225 10.8591 0.679747Z" fill="#101828"/>
</g>
</g>
<g style="mix-blend-mode:multiply" opacity="0.3">
<g style="mix-blend-mode:multiply" opacity="0.3">
<path d="M1.02272 0.0387662L1.38047 0.153127L1.66941 0.246009C2.67547 0.560416 3.65598 0.988217 4.59809 1.52377C5.07074 1.78439 5.52943 2.07486 5.97972 2.38525C6.20762 2.5405 6.42443 2.70556 6.64674 2.87409C6.86905 3.04261 7.07755 3.21421 7.28872 3.39925C8.1371 4.12022 8.92957 4.93409 9.65609 5.83055C10.0201 6.27309 10.3619 6.7453 10.6926 7.22398C10.8292 7.42425 10.9631 7.62446 11.0941 7.83131C11.3567 8.04363 11.6026 8.28507 11.8287 8.55249C12.3496 9.15737 12.7631 9.88518 13.0433 10.6903C13.3235 11.4955 13.4644 12.3606 13.4571 13.2317L13.3916 23.8853C13.386 24.7228 13.1067 25.5203 12.615 26.1023C12.1233 26.6843 11.4595 27.0032 10.7697 26.9889C10.0114 26.9746 9.26325 26.7607 8.57685 26.3619C7.89044 25.9631 7.28218 25.3889 6.79403 24.679C6.56364 24.3487 6.36252 23.9901 6.194 23.6091C6.29771 24.0284 6.44637 24.4298 6.6361 24.803C7.11629 25.6547 7.64577 26.4642 8.22046 27.2252C8.50765 27.6025 8.80592 27.9734 9.11534 28.3245C9.42476 28.6755 9.74806 29.0101 10.077 29.3315C10.7382 29.9713 11.4368 30.5516 12.1674 31.0676C12.8946 31.5853 13.6544 32.0316 14.4395 32.4023C13.677 31.9775 12.9401 31.4872 12.2344 30.935C11.5296 30.3886 10.8587 29.7798 10.2272 29.1136C9.90939 28.7824 9.60548 28.4315 9.30987 28.0774C9.01426 27.7233 8.72977 27.3526 8.45362 26.9721C8.27864 26.7309 8.11198 26.4798 7.94533 26.2287C8.24926 26.4677 8.57234 26.6683 8.90947 26.8274C9.3507 27.0419 9.81387 27.1808 10.2856 27.2402C10.7673 27.3253 11.2576 27.278 11.7202 27.1019C12.191 26.9112 12.6113 26.5736 12.9392 26.1227C13.267 25.6718 13.491 25.1233 13.5889 24.532C13.6143 24.3847 13.6299 24.235 13.6358 24.0844C13.639 24.0108 13.6448 23.9641 13.6482 23.8637L13.6494 23.6596L13.6572 22.8362L13.6729 21.1896L13.7041 17.8997L13.7133 14.6093C13.7112 14.057 13.72 13.5249 13.7125 12.9523C13.6945 12.3767 13.6146 11.8056 13.4747 11.2537C13.1982 10.1558 12.6944 9.16 12.0118 8.36204C11.7089 7.84375 11.3894 7.34521 11.0505 6.85966C10.7076 6.36921 10.3442 5.90038 9.9617 5.45513C9.19937 4.56132 8.37182 3.7535 7.48944 3.04178C7.27271 2.86333 7.04216 2.69129 6.81983 2.52611C6.5975 2.36093 6.36413 2.19888 6.13067 2.05021C5.66656 1.74624 5.19402 1.46553 4.70752 1.21467C3.92121 0.817945 3.11214 0.492765 2.28707 0.241776C3.08396 0.237822 3.87811 0.230465 4.67503 0.219818C3.68 0.162856 2.68216 0.112528 1.68704 0.0689512L1.02272 0.0387662Z" fill="black"/>
</g>
</g>
</svg>
